<?xml version="1.0" encoding="utf-8"?>
<!-- Generator: Adobe Illustrator 26.0.1, SVG Export Plug-In . SVG Version: 6.00 Build 0)  -->
<svg version="1.1" xmlns="http://www.w3.org/2000/svg" xmlns:xlink="http://www.w3.org/1999/xlink" x="0px" y="0px"
	 viewBox="0 0 401.5 121.4" style="enable-background:new 0 0 401.5 121.4;" xml:space="preserve">
<style type="text/css">
	.st0{fill:#E6E6E6;}
	.st1{fill:#F5F3EB;}
	.st2{fill:#FFFFFF;}
	.st3{fill:#1A1A1A;}
	.st4{fill:#585656;}
</style>
<g id="レイヤー_1">
</g>
<g id="レイヤー_2">
	<g>
		<path class="st0" d="M400.7,0.7v120H0.7V0.7H400.7 M401.5,0h-0.7H0.7H0v0.7v120v0.7h0.7h400h0.7v-0.7V0.7V0L401.5,0z"/>
	</g>
	<rect x="0.7" y="0.7" class="st1" width="200" height="120"/>
	<rect x="300.7" y="0.7" class="st2" width="100" height="120"/>
	<rect x="200.7" y="0.7" class="st3" width="100" height="120"/>
	<g>
		<g>
			<path class="st4" d="M17.9,17.5h-1.2l-0.4,2.2h-0.6l0.4-2.2h-1.6l-0.3,2.2h-0.6l0.3-2.2h-1.2l0.1-0.5H14l0.3-1.6h-1.2l0.1-0.5
				h1.2l0.3-2.1h0.6l-0.3,2.1h1.6l0.3-2.1h0.6l-0.3,2.1h1.2l-0.1,0.5H17L16.8,17H18L17.9,17.5z M14.8,15.4L14.6,17h1.6l0.2-1.6H14.8
				z"/>
			<path class="st4" d="M23.1,15.8v0.6h-2.8v3.2h-0.7v-6.8h3.7v0.6h-3v2.4H23.1z"/>
			<path class="st4" d="M25.3,18.4c0.2,0.5,0.6,0.7,1.2,0.7c0.9,0,1.5-0.7,1.5-1.8c0-1-0.5-1.7-1.3-1.7c-0.6,0-0.9,0.2-1.3,0.7
				l-0.6-0.1l0.5-3.5h3.1l-0.1,0.6h-2.5l-0.3,2.2c0.4-0.4,0.7-0.5,1.2-0.5c1.2,0,2,0.9,2,2.2c0,0.6-0.2,1.1-0.5,1.6
				c-0.4,0.6-1,0.9-1.7,0.9c-1,0-1.7-0.5-1.9-1.3H25.3z"/>
			<path class="st4" d="M33.9,15.8v0.6h-2.8v3.2h-0.7v-6.8h3.7v0.6h-3v2.4H33.9z"/>
			<path class="st4" d="M35.6,14.2c0.2-0.9,0.8-1.4,1.9-1.4c1.2,0,1.9,0.7,1.9,1.7c0,0.6-0.3,1.1-0.7,1.3c-0.1,0.1-0.1,0.1-0.4,0.2
				c0.3,0.1,0.4,0.1,0.5,0.2c0.5,0.3,0.8,0.8,0.8,1.5c0,0.7-0.3,1.3-0.8,1.7c-0.4,0.3-0.8,0.4-1.4,0.4c-1.2,0-1.9-0.6-2.1-1.5H36
				c0.1,0.6,0.6,0.9,1.4,0.9c0.9,0,1.5-0.5,1.5-1.4c0-0.6-0.3-1.1-0.8-1.3c-0.2-0.1-0.5-0.1-0.9-0.1c-0.1,0-0.1,0-0.2,0v-0.6
				c0.1,0,0.2,0,0.3,0c0.8,0,1.4-0.5,1.4-1.3c0-0.7-0.5-1.1-1.3-1.1c-0.6,0-1,0.3-1.2,0.8H35.6z"/>
			<path class="st4" d="M44.8,15.8v0.6H42v2.6H45v0.6h-3.8v-6.8H45v0.6h-3v2.4H44.8z"/>
			<path class="st4" d="M48,12.8c0.7,0,1.1,0,1.4,0.1c0.7,0.2,1,0.7,1,1.5c0,0.8-0.4,1.3-1.2,1.6c1.1,0.3,1.6,0.8,1.6,1.8
				c0,0.9-0.4,1.5-1.1,1.7c-0.4,0.1-0.8,0.1-1.7,0.1h-1.4v-6.8H48z M47.9,15.8c0.7,0,1,0,1.3-0.2c0.3-0.2,0.5-0.6,0.5-1.1
				c0-0.5-0.2-0.8-0.6-1c-0.2-0.1-0.5-0.1-1-0.1h-0.9v2.4H47.9z M48.1,19.1c1,0,1.3-0.1,1.6-0.3c0.3-0.2,0.4-0.6,0.4-1
				c0-0.6-0.3-1-0.7-1.2c-0.3-0.1-0.6-0.2-1.4-0.2h-0.7v2.7H48.1z"/>
		</g>
	</g>
	<g>
		<g>
			<path class="st2" d="M217.9,17.5h-1.2l-0.4,2.2h-0.6l0.4-2.2h-1.6l-0.3,2.2h-0.6l0.3-2.2h-1.2l0.1-0.5h1.2l0.3-1.6h-1.2l0.1-0.5
				h1.2l0.3-2.1h0.6l-0.3,2.1h1.6l0.3-2.1h0.6l-0.3,2.1h1.2l-0.1,0.5H217l-0.2,1.6h1.2L217.9,17.5z M214.8,15.4l-0.3,1.6h1.6
				l0.2-1.6H214.8z"/>
			<path class="st2" d="M220.2,13.9c0.9,0,1.3-0.3,1.5-1.1h0.5v6.9h-0.7v-5.4h-1.3V13.9z"/>
			<path class="st2" d="M225.1,16.1c0.1-0.9,0.7-1.4,1.8-1.4c0.8,0,1.4,0.3,1.5,0.8c0.1,0.3,0.1,0.5,0.1,1.1v1.8c0,0.8,0,1,0.1,1.3
				H228c-0.1-0.3-0.1-0.3-0.1-0.7c-0.2,0.3-0.2,0.3-0.3,0.5c-0.3,0.3-0.7,0.4-1.1,0.4c-0.9,0-1.6-0.5-1.6-1.4c0-0.8,0.5-1.3,1.6-1.6
				c0.4-0.1,0.6-0.2,1.4-0.3v-0.2c0-0.4,0-0.6-0.2-0.7c-0.2-0.2-0.5-0.3-0.9-0.3c-0.6,0-1,0.3-1.1,0.8H225.1z M227.9,17
				c-1.7,0.3-2.3,0.6-2.3,1.4c0,0.5,0.4,0.9,1,0.9c0.5,0,0.9-0.2,1.1-0.6c0.1-0.2,0.2-0.6,0.2-1.1V17z"/>
			<path class="st2" d="M230.9,13.9c0.9,0,1.3-0.3,1.5-1.1h0.5v6.9h-0.7v-5.4h-1.3V13.9z"/>
			<path class="st2" d="M235.7,16.1c0.1-0.9,0.7-1.4,1.8-1.4c0.8,0,1.4,0.3,1.5,0.8c0.1,0.3,0.1,0.5,0.1,1.1v1.8c0,0.8,0,1,0.1,1.3
				h-0.6c-0.1-0.3-0.1-0.3-0.1-0.7c-0.2,0.3-0.2,0.3-0.3,0.5c-0.3,0.3-0.7,0.4-1.1,0.4c-0.9,0-1.6-0.5-1.6-1.4
				c0-0.8,0.5-1.3,1.6-1.6c0.4-0.1,0.6-0.2,1.4-0.3v-0.2c0-0.4,0-0.6-0.2-0.7c-0.2-0.2-0.5-0.3-0.9-0.3c-0.6,0-1,0.3-1.1,0.8H235.7z
				 M238.6,17c-1.7,0.3-2.3,0.6-2.3,1.4c0,0.5,0.4,0.9,1,0.9c0.5,0,0.9-0.2,1.1-0.6c0.1-0.2,0.2-0.6,0.2-1.1V17z"/>
			<path class="st2" d="M241.5,13.9c0.9,0,1.3-0.3,1.5-1.1h0.5v6.9h-0.7v-5.4h-1.3V13.9z"/>
			<path class="st2" d="M246.4,16.1c0.1-0.9,0.7-1.4,1.8-1.4c0.8,0,1.4,0.3,1.5,0.8c0.1,0.3,0.1,0.5,0.1,1.1v1.8c0,0.8,0,1,0.1,1.3
				h-0.6c-0.1-0.3-0.1-0.3-0.1-0.7c-0.2,0.3-0.2,0.3-0.3,0.5c-0.3,0.3-0.7,0.4-1.1,0.4c-0.9,0-1.6-0.5-1.6-1.4
				c0-0.8,0.5-1.3,1.6-1.6c0.4-0.1,0.6-0.2,1.4-0.3v-0.2c0-0.4,0-0.6-0.2-0.7c-0.2-0.2-0.5-0.3-0.9-0.3c-0.6,0-1,0.3-1.1,0.8H246.4z
				 M249.2,17c-1.7,0.3-2.3,0.6-2.3,1.4c0,0.5,0.4,0.9,1,0.9c0.5,0,0.9-0.2,1.1-0.6c0.1-0.2,0.2-0.6,0.2-1.1V17z"/>
		</g>
	</g>
	<g>
		<g>
			<path class="st4" d="M317.9,17.4h-1.2l-0.4,2.2h-0.6l0.4-2.2h-1.6l-0.3,2.2h-0.6l0.3-2.2h-1.2l0.1-0.5h1.2l0.3-1.6h-1.2l0.1-0.5
				h1.2l0.3-2.1h0.6l-0.3,2.1h1.6l0.3-2.1h0.6l-0.3,2.1h1.2l-0.1,0.5H317l-0.2,1.6h1.2L317.9,17.4z M314.8,15.3l-0.3,1.6h1.6
				l0.2-1.6H314.8z"/>
			<path class="st4" d="M323.1,15.7v0.6h-2.8v3.2h-0.7v-6.8h3.7v0.6h-3v2.4H323.1z"/>
			<path class="st4" d="M328.3,15.7v0.6h-2.8v3.2h-0.7v-6.8h3.7v0.6h-3v2.4H328.3z"/>
			<path class="st4" d="M333.4,15.7v0.6h-2.8v3.2h-0.7v-6.8h3.7v0.6h-3v2.4H333.4z"/>
			<path class="st4" d="M338.5,15.7v0.6h-2.8v3.2H335v-6.8h3.7v0.6h-3v2.4H338.5z"/>
			<path class="st4" d="M343.7,15.7v0.6h-2.8v3.2h-0.7v-6.8h3.7v0.6h-3v2.4H343.7z"/>
			<path class="st4" d="M348.8,15.7v0.6H346v3.2h-0.7v-6.8h3.7v0.6h-3v2.4H348.8z"/>
		</g>
	</g>
</g>
</svg>
