<?xml version="1.0" encoding="utf-8"?>
<!-- Generator: Adobe Illustrator 26.0.1, SVG Export Plug-In . SVG Version: 6.00 Build 0)  -->
<svg version="1.1" xmlns="http://www.w3.org/2000/svg" xmlns:xlink="http://www.w3.org/1999/xlink" x="0px" y="0px"
	 viewBox="0 0 401.5 121.4" style="enable-background:new 0 0 401.5 121.4;" xml:space="preserve">
<style type="text/css">
	.st0{fill:#E6E6E6;}
	.st1{fill:#030F1A;}
	.st2{fill:#FFFFFF;}
	.st3{fill:#877B5F;}
	.st4{fill:#585656;}
</style>
<g id="レイヤー_1">
</g>
<g id="レイヤー_2">
	<g>
		<g>
			<path class="st0" d="M400.7,0.7v120H0.7V0.7H400.7 M401.5,0h-0.7H0.7H0v0.7v120v0.7h0.7h400h0.7v-0.7V0.7V0L401.5,0z"/>
		</g>
		<rect x="0.7" y="0.7" class="st1" width="200" height="120"/>
		<rect x="300.7" y="0.7" class="st2" width="100" height="120"/>
		<rect x="200.7" y="0.7" class="st3" width="100" height="120"/>
		<g>
			<g>
				<g>
					<path class="st2" d="M17.9,17.5h-1.2l-0.4,2.2h-0.6l0.4-2.2h-1.6l-0.3,2.2h-0.6l0.3-2.2h-1.2l0.1-0.5H14l0.3-1.6h-1.2l0.1-0.5
						h1.2l0.3-2.1h0.6l-0.3,2.1h1.6l0.3-2.1h0.6l-0.3,2.1h1.2l-0.1,0.5H17L16.8,17H18L17.9,17.5z M14.8,15.4L14.6,17h1.6l0.2-1.6
						H14.8z"/>
					<path class="st2" d="M23.7,16.2c0,1.2-0.3,2.1-0.7,2.8c-0.3,0.5-0.9,0.7-1.5,0.7c-0.6,0-1.2-0.3-1.5-0.7
						c-0.5-0.7-0.7-1.6-0.7-2.8c0-2.2,0.8-3.5,2.2-3.5C22.9,12.7,23.7,14,23.7,16.2z M20.4,14c-0.3,0.5-0.5,1.4-0.5,2.3
						c0,0.9,0.2,1.7,0.5,2.3c0.2,0.4,0.6,0.6,1,0.6c0.5,0,0.8-0.2,1.1-0.6c0.3-0.6,0.5-1.4,0.5-2.3c0-0.9-0.2-1.8-0.5-2.3
						c-0.2-0.4-0.6-0.6-1.1-0.6S20.7,13.5,20.4,14z"/>
					<path class="st2" d="M25.3,14.2c0.2-0.9,0.8-1.4,1.9-1.4c1.2,0,1.9,0.7,1.9,1.7c0,0.6-0.3,1.1-0.7,1.3
						c-0.1,0.1-0.1,0.1-0.4,0.2c0.3,0.1,0.4,0.1,0.5,0.2c0.5,0.3,0.8,0.8,0.8,1.5c0,0.7-0.3,1.3-0.8,1.7c-0.4,0.3-0.8,0.4-1.4,0.4
						c-1.2,0-1.9-0.6-2.1-1.5h0.7c0.1,0.6,0.6,0.9,1.4,0.9c0.9,0,1.5-0.5,1.5-1.4c0-0.6-0.3-1.1-0.8-1.3c-0.2-0.1-0.5-0.1-0.9-0.1
						c-0.1,0-0.1,0-0.2,0v-0.6c0.1,0,0.2,0,0.3,0c0.8,0,1.4-0.5,1.4-1.3c0-0.7-0.5-1.1-1.3-1.1c-0.6,0-1,0.3-1.2,0.8H25.3z"/>
					<path class="st2" d="M35.1,16.2c0,1.2-0.3,2.1-0.7,2.8c-0.3,0.5-0.9,0.7-1.5,0.7c-0.6,0-1.2-0.3-1.5-0.7
						c-0.5-0.7-0.7-1.6-0.7-2.8c0-2.2,0.8-3.5,2.2-3.5C34.2,12.7,35.1,14,35.1,16.2z M31.8,14c-0.3,0.5-0.5,1.4-0.5,2.3
						c0,0.9,0.2,1.7,0.5,2.3c0.2,0.4,0.6,0.6,1,0.6c0.5,0,0.8-0.2,1.1-0.6c0.3-0.6,0.5-1.4,0.5-2.3c0-0.9-0.2-1.8-0.5-2.3
						c-0.2-0.4-0.6-0.6-1.1-0.6S32,13.5,31.8,14z"/>
					<path class="st2" d="M40.1,15.8v0.6h-2.8v3.2h-0.7v-6.8h3.7v0.6h-3v2.4H40.1z"/>
					<path class="st2" d="M42.3,13.9c0.9,0,1.3-0.3,1.5-1.1h0.5v6.9h-0.7v-5.4h-1.3V13.9z"/>
					<path class="st2" d="M49.8,12.8l2.4,6.9h-0.7l-0.6-1.8h-2.6l-0.6,1.8h-0.7l2.4-6.9H49.8z M49.4,13.7l-1.1,3.6h2.3L49.4,13.7z"
						/>
				</g>
			</g>
			<g>
				<g>
					<path class="st2" d="M217.9,17.5h-1.2l-0.4,2.2h-0.6l0.4-2.2h-1.6l-0.3,2.2h-0.6l0.3-2.2h-1.2l0.1-0.5h1.2l0.3-1.6h-1.2
						l0.1-0.5h1.2l0.3-2.1h0.6l-0.3,2.1h1.6l0.3-2.1h0.6l-0.3,2.1h1.2l-0.1,0.5H217l-0.2,1.6h1.2L217.9,17.5z M214.8,15.4l-0.3,1.6
						h1.6l0.2-1.6H214.8z"/>
					<path class="st2" d="M219.6,14.5c0-1,0.8-1.8,1.9-1.8c1.1,0,1.9,0.8,1.9,1.8c0,0.6-0.3,1.2-0.9,1.4c0.7,0.4,1.1,1,1.1,1.8
						c0,1.2-0.9,2-2.1,2s-2.1-0.8-2.1-2c0-0.8,0.4-1.4,1.1-1.8C219.9,15.7,219.6,15.1,219.6,14.5z M220.1,17.7
						c0,0.8,0.5,1.4,1.4,1.4c0.8,0,1.4-0.6,1.4-1.4s-0.5-1.4-1.4-1.4C220.7,16.3,220.1,16.9,220.1,17.7z M220.4,14.5
						c0,0.7,0.5,1.2,1.1,1.2s1.1-0.5,1.1-1.2s-0.5-1.2-1.1-1.2S220.4,13.8,220.4,14.5z"/>
					<path class="st2" d="M229.3,12.8v0.6l-3.1,6.2h-0.7l3-6.2h-3.5v-0.7H229.3z"/>
					<path class="st2" d="M235,12.8v0.6l-3.1,6.2h-0.7l3-6.2h-3.5v-0.7H235z"/>
					<path class="st2" d="M238.1,12.8c0.7,0,1.1,0,1.4,0.1c0.7,0.2,1,0.7,1,1.5c0,0.8-0.4,1.3-1.2,1.6c1.1,0.3,1.6,0.8,1.6,1.8
						c0,0.9-0.4,1.5-1.1,1.7c-0.4,0.1-0.8,0.1-1.7,0.1h-1.4v-6.8H238.1z M238,15.8c0.7,0,1,0,1.3-0.2c0.3-0.2,0.5-0.6,0.5-1.1
						c0-0.5-0.2-0.8-0.6-1c-0.2-0.1-0.5-0.1-1-0.1h-0.9v2.4H238z M238.2,19.1c1,0,1.3-0.1,1.6-0.3c0.3-0.2,0.4-0.6,0.4-1
						c0-0.6-0.3-1-0.7-1.2c-0.3-0.1-0.6-0.2-1.4-0.2h-0.7v2.7H238.2z"/>
					<path class="st2" d="M242.9,18.4c0.2,0.5,0.6,0.7,1.2,0.7c0.9,0,1.5-0.7,1.5-1.8c0-1-0.5-1.7-1.3-1.7c-0.6,0-0.9,0.2-1.3,0.7
						l-0.6-0.1l0.5-3.5h3.1l-0.1,0.6h-2.5l-0.3,2.2c0.4-0.4,0.7-0.5,1.2-0.5c1.2,0,2,0.9,2,2.2c0,0.6-0.2,1.1-0.5,1.6
						c-0.4,0.6-1,0.9-1.7,0.9c-1,0-1.7-0.5-1.9-1.3H242.9z"/>
					<path class="st2" d="M251.6,15.8v0.6h-2.8v3.2h-0.7v-6.8h3.7v0.6h-3v2.4H251.6z"/>
				</g>
			</g>
			<g>
				<g>
					<path class="st4" d="M317.9,17.4h-1.2l-0.4,2.2h-0.6l0.4-2.2h-1.6l-0.3,2.2h-0.6l0.3-2.2h-1.2l0.1-0.5h1.2l0.3-1.6h-1.2
						l0.1-0.5h1.2l0.3-2.1h0.6l-0.3,2.1h1.6l0.3-2.1h0.6l-0.3,2.1h1.2l-0.1,0.5H317l-0.2,1.6h1.2L317.9,17.4z M314.8,15.3l-0.3,1.6
						h1.6l0.2-1.6H314.8z"/>
					<path class="st4" d="M323.1,15.7v0.6h-2.8v3.2h-0.7v-6.8h3.7v0.6h-3v2.4H323.1z"/>
					<path class="st4" d="M328.3,15.7v0.6h-2.8v3.2h-0.7v-6.8h3.7v0.6h-3v2.4H328.3z"/>
					<path class="st4" d="M333.4,15.7v0.6h-2.8v3.2h-0.7v-6.8h3.7v0.6h-3v2.4H333.4z"/>
					<path class="st4" d="M338.5,15.7v0.6h-2.8v3.2H335v-6.8h3.7v0.6h-3v2.4H338.5z"/>
					<path class="st4" d="M343.7,15.7v0.6h-2.8v3.2h-0.7v-6.8h3.7v0.6h-3v2.4H343.7z"/>
					<path class="st4" d="M348.8,15.7v0.6H346v3.2h-0.7v-6.8h3.7v0.6h-3v2.4H348.8z"/>
				</g>
			</g>
		</g>
	</g>
</g>
</svg>
