<?xml version="1.0" encoding="utf-8"?>
<!-- Generator: Adobe Illustrator 26.0.1, SVG Export Plug-In . SVG Version: 6.00 Build 0)  -->
<svg version="1.1" xmlns="http://www.w3.org/2000/svg" xmlns:xlink="http://www.w3.org/1999/xlink" x="0px" y="0px"
	 viewBox="0 0 401.5 121.4" style="enable-background:new 0 0 401.5 121.4;" xml:space="preserve">
<style type="text/css">
	.st0{fill:#E6E6E6;}
	.st1{fill:#FFFFFF;}
	.st2{fill:#65CDBA;}
	.st3{fill:#585656;}
</style>
<g id="レイヤー_1">
</g>
<g id="レイヤー_2">
	<g>
		<path class="st0" d="M400.7,0.7v120H0.7V0.7H400.7 M401.5,0h-0.7H0.7H0v0.7v120v0.7h0.7h400h0.7v-0.7V0.7V0L401.5,0z"/>
	</g>
	<rect x="0.7" y="0.7" class="st1" width="200" height="120"/>
	<rect x="300.7" y="0.7" class="st2" width="100" height="120"/>
	<rect x="200.7" y="0.7" class="st3" width="100" height="120"/>
	<g>
		<g>
			<path class="st3" d="M17.9,17.5h-1.2l-0.4,2.2h-0.6l0.4-2.2h-1.6l-0.3,2.2h-0.6l0.3-2.2h-1.2l0.1-0.5H14l0.3-1.6h-1.2l0.1-0.5
				h1.2l0.3-2.1h0.6l-0.3,2.1h1.6l0.3-2.1h0.6l-0.3,2.1h1.2l-0.1,0.5H17L16.8,17H18L17.9,17.5z M14.8,15.4L14.6,17h1.6l0.2-1.6H14.8
				z"/>
			<path class="st3" d="M23.1,15.8v0.6h-2.8v3.2h-0.7v-6.8h3.7v0.6h-3v2.4H23.1z"/>
			<path class="st3" d="M28.3,15.8v0.6h-2.8v3.2h-0.7v-6.8h3.7v0.6h-3v2.4H28.3z"/>
			<path class="st3" d="M33.4,15.8v0.6h-2.8v3.2h-0.7v-6.8h3.7v0.6h-3v2.4H33.4z"/>
			<path class="st3" d="M38.5,15.8v0.6h-2.8v3.2H35v-6.8h3.7v0.6h-3v2.4H38.5z"/>
			<path class="st3" d="M43.7,15.8v0.6h-2.8v3.2h-0.7v-6.8h3.7v0.6h-3v2.4H43.7z"/>
			<path class="st3" d="M48.8,15.8v0.6H46v3.2h-0.7v-6.8h3.7v0.6h-3v2.4H48.8z"/>
		</g>
	</g>
	<g>
		<g>
			<path class="st1" d="M217.9,17.5h-1.2l-0.4,2.2h-0.6l0.4-2.2h-1.6l-0.3,2.2h-0.6l0.3-2.2h-1.2l0.1-0.5h1.2l0.3-1.6h-1.2l0.1-0.5
				h1.2l0.3-2.1h0.6l-0.3,2.1h1.6l0.3-2.1h0.6l-0.3,2.1h1.2l-0.1,0.5H217l-0.2,1.6h1.2L217.9,17.5z M214.8,15.4l-0.3,1.6h1.6
				l0.2-1.6H214.8z"/>
			<path class="st1" d="M220.2,18.4c0.2,0.5,0.6,0.7,1.2,0.7c0.9,0,1.5-0.7,1.5-1.8c0-1-0.5-1.7-1.3-1.7c-0.6,0-0.9,0.2-1.3,0.7
				l-0.6-0.1l0.5-3.5h3.1l-0.1,0.6h-2.5l-0.3,2.2c0.4-0.4,0.7-0.5,1.2-0.5c1.2,0,2,0.9,2,2.2c0,0.6-0.2,1.1-0.5,1.6
				c-0.4,0.6-1,0.9-1.7,0.9c-1,0-1.7-0.5-1.9-1.3H220.2z"/>
			<path class="st1" d="M225.3,14.5c0-1,0.8-1.8,1.9-1.8c1.1,0,1.9,0.8,1.9,1.8c0,0.6-0.3,1.2-0.9,1.4c0.7,0.4,1.1,1,1.1,1.8
				c0,1.2-0.9,2-2.1,2s-2.1-0.8-2.1-2c0-0.8,0.4-1.4,1.1-1.8C225.6,15.7,225.3,15.1,225.3,14.5z M225.8,17.7c0,0.8,0.5,1.4,1.4,1.4
				c0.8,0,1.4-0.6,1.4-1.4s-0.5-1.4-1.4-1.4C226.4,16.3,225.8,16.9,225.8,17.7z M226,14.5c0,0.7,0.5,1.2,1.1,1.2s1.1-0.5,1.1-1.2
				s-0.5-1.2-1.1-1.2S226,13.8,226,14.5z"/>
			<path class="st1" d="M231.5,18.4c0.2,0.5,0.6,0.7,1.2,0.7c0.9,0,1.5-0.7,1.5-1.8c0-1-0.5-1.7-1.3-1.7c-0.6,0-0.9,0.2-1.3,0.7
				l-0.6-0.1l0.5-3.5h3.1l-0.1,0.6H232l-0.3,2.2c0.4-0.4,0.7-0.5,1.2-0.5c1.2,0,2,0.9,2,2.2c0,0.6-0.2,1.1-0.5,1.6
				c-0.4,0.6-1,0.9-1.7,0.9c-1,0-1.7-0.5-1.9-1.3H231.5z"/>
			<path class="st1" d="M240,12.8c-0.3,0.2-1,0.8-1.4,1.2c-0.5,0.4-0.8,1-1.1,1.6c0.4-0.3,0.7-0.4,1.2-0.4c1.2,0,1.9,0.9,1.9,2.3
				c0,1.4-0.8,2.4-2,2.4c-0.7,0-1.4-0.3-1.7-1c-0.2-0.4-0.4-0.9-0.4-1.6c0-1.1,0.4-2.2,1.1-3c0.4-0.5,1-1,1.7-1.4H240z M239.8,17.4
				c0-1-0.5-1.7-1.4-1.7c-0.4,0-0.7,0.1-0.9,0.4c-0.3,0.3-0.4,0.6-0.4,1.2c0,1.2,0.5,1.9,1.4,1.9C239.3,19.2,239.8,18.5,239.8,17.4z
				"/>
			<path class="st1" d="M242.8,18.4c0.2,0.5,0.6,0.7,1.2,0.7c0.9,0,1.5-0.7,1.5-1.8c0-1-0.5-1.7-1.3-1.7c-0.6,0-0.9,0.2-1.3,0.7
				l-0.6-0.1l0.5-3.5h3.1l-0.1,0.6h-2.5l-0.3,2.2c0.4-0.4,0.7-0.5,1.2-0.5c1.2,0,2,0.9,2,2.2c0,0.6-0.2,1.1-0.5,1.6
				c-0.4,0.6-1,0.9-1.7,0.9c-1,0-1.7-0.5-1.9-1.3H242.8z"/>
			<path class="st1" d="M251.3,12.8c-0.3,0.2-1,0.8-1.4,1.2c-0.5,0.4-0.8,1-1.1,1.6c0.4-0.3,0.7-0.4,1.2-0.4c1.2,0,1.9,0.9,1.9,2.3
				c0,1.4-0.8,2.4-2,2.4c-0.7,0-1.4-0.3-1.7-1c-0.2-0.4-0.4-0.9-0.4-1.6c0-1.1,0.4-2.2,1.1-3c0.4-0.5,1-1,1.7-1.4H251.3z
				 M251.2,17.4c0-1-0.5-1.7-1.4-1.7c-0.4,0-0.7,0.1-0.9,0.4c-0.3,0.3-0.4,0.6-0.4,1.2c0,1.2,0.5,1.9,1.4,1.9
				C250.7,19.2,251.2,18.5,251.2,17.4z"/>
		</g>
	</g>
	<g>
		<g>
			<path class="st1" d="M317.9,17.4h-1.2l-0.4,2.2h-0.6l0.4-2.2h-1.6l-0.3,2.2h-0.6l0.3-2.2h-1.2l0.1-0.5h1.2l0.3-1.6h-1.2l0.1-0.5
				h1.2l0.3-2.1h0.6l-0.3,2.1h1.6l0.3-2.1h0.6l-0.3,2.1h1.2l-0.1,0.5H317l-0.2,1.6h1.2L317.9,17.4z M314.8,15.3l-0.3,1.6h1.6
				l0.2-1.6H314.8z"/>
			<path class="st1" d="M323,12.7c-0.3,0.2-1,0.8-1.4,1.2c-0.5,0.4-0.8,1-1.1,1.6c0.4-0.3,0.7-0.4,1.2-0.4c1.2,0,1.9,0.9,1.9,2.3
				c0,1.4-0.8,2.4-2,2.4c-0.7,0-1.4-0.3-1.7-1c-0.2-0.4-0.4-0.9-0.4-1.6c0-1.1,0.4-2.2,1.1-3c0.4-0.5,1-1,1.7-1.4H323z M322.8,17.3
				c0-1-0.5-1.7-1.4-1.7c-0.4,0-0.7,0.1-0.9,0.4c-0.3,0.3-0.4,0.6-0.4,1.2c0,1.2,0.5,1.9,1.4,1.9C322.3,19.1,322.8,18.3,322.8,17.3z
				"/>
			<path class="st1" d="M325.8,18.3c0.2,0.5,0.6,0.7,1.2,0.7c0.9,0,1.5-0.7,1.5-1.8c0-1-0.5-1.7-1.3-1.7c-0.6,0-0.9,0.2-1.3,0.7
				l-0.6-0.1l0.5-3.5h3.1l-0.1,0.6h-2.5l-0.3,2.2c0.4-0.4,0.7-0.5,1.2-0.5c1.2,0,2,0.9,2,2.2c0,0.6-0.2,1.1-0.5,1.6
				c-0.4,0.6-1,0.9-1.7,0.9c-1,0-1.7-0.5-1.9-1.3H325.8z"/>
			<path class="st1" d="M335,14.6c-0.2-0.9-0.7-1.4-1.6-1.4c-1.3,0-2,1.1-2,2.9c0,1.8,0.8,2.9,2.1,2.9c1,0,1.6-0.6,1.7-1.8h0.7
				c-0.1,1.5-1,2.4-2.3,2.4c-1.7,0-2.9-1.4-2.9-3.5c0-1.2,0.3-2.2,1-2.8c0.5-0.5,1.1-0.7,1.8-0.7c1.3,0,2.1,0.7,2.3,2H335z"/>
			<path class="st1" d="M338.5,12.7c1.3,0,1.8,0.1,2.3,0.4c0.9,0.5,1.5,1.6,1.5,3c0,1.5-0.6,2.6-1.5,3.1c-0.6,0.3-1,0.3-2.3,0.3
				h-1.2v-6.8H338.5z M338.7,19c1,0,1.3-0.1,1.8-0.3c0.7-0.4,1-1.3,1-2.5c0-1.3-0.4-2.1-1.2-2.5c-0.4-0.2-0.7-0.3-1.9-0.3H338V19
				H338.7z"/>
			<path class="st1" d="M345.4,12.7c0.7,0,1.1,0,1.4,0.1c0.7,0.2,1,0.7,1,1.5c0,0.8-0.4,1.3-1.2,1.6c1.1,0.3,1.6,0.8,1.6,1.8
				c0,0.9-0.4,1.5-1.1,1.7c-0.4,0.1-0.8,0.1-1.7,0.1h-1.4v-6.8H345.4z M345.3,15.7c0.7,0,1,0,1.3-0.2c0.3-0.2,0.5-0.6,0.5-1.1
				c0-0.5-0.2-0.8-0.6-1c-0.2-0.1-0.5-0.1-1-0.1h-0.9v2.4H345.3z M345.4,19c1,0,1.3-0.1,1.6-0.3c0.3-0.2,0.4-0.6,0.4-1
				c0-0.6-0.3-1-0.7-1.2c-0.3-0.1-0.6-0.2-1.4-0.2h-0.7V19H345.4z"/>
			<path class="st1" d="M352,12.7l2.4,6.9h-0.7l-0.6-1.8h-2.6l-0.6,1.8H349l2.4-6.9H352z M351.7,13.6l-1.1,3.6h2.3L351.7,13.6z"/>
		</g>
	</g>
</g>
</svg>
