<?xml version="1.0" encoding="utf-8"?>
<!-- Generator: Adobe Illustrator 26.0.1, SVG Export Plug-In . SVG Version: 6.00 Build 0)  -->
<svg version="1.1" id="レイヤー_1" xmlns="http://www.w3.org/2000/svg" xmlns:xlink="http://www.w3.org/1999/xlink" x="0px"
	 y="0px" viewBox="0 0 300 183.6" style="enable-background:new 0 0 300 183.6;" xml:space="preserve">
<style type="text/css">
	.st0{fill:#D9D9D9;}
	.st1{fill:#B9B9B9;}
	.st2{fill:#585656;}
	.st3{fill:#FFFFFF;}
	.st4{fill:#CACACB;}
	.st5{fill:none;stroke:#585656;stroke-width:2;stroke-miterlimit:10;}
</style>
<path class="st0" d="M159.2,137.6c-0.6,3.9-4,6.9-8.1,6.9c-4.1,0-7.5-3-8.1-6.9h-20.7v44.9h57.6v-44.9L159.2,137.6L159.2,137.6z"/>
<rect x="123.3" y="182.3" class="st1" width="5.7" height="1"/>
<rect x="173.7" y="182.5" class="st1" width="5.7" height="1"/>
<path class="st2" d="M267,138.7H35.2c-1.8,0-3.2-1.4-3.2-3.2V3.2C32,1.4,33.4,0,35.2,0H267c1.8,0,3.2,1.4,3.2,3.2v132.3
	C270.2,137.3,268.8,138.7,267,138.7L267,138.7L267,138.7z"/>
<rect x="37.8" y="5.7" class="st3" width="226.9" height="128"/>
<path class="st2" d="M0,183.6c0,0.2,0.1,0.3,0.3,0.3h299.3c0.2,0,0.3-0.1,0.3-0.3s-0.1-0.3-0.3-0.3H0.3C0.1,183.3,0,183.5,0,183.6z"
	/>
<path class="st2" d="M167.3,59.1h56.5c1.6,0,2.8,1.3,2.8,2.8v0c0,1.6-1.3,2.8-2.8,2.8h-56.5c-1.6,0-2.8-1.3-2.8-2.8v0
	C164.5,60.4,165.8,59.1,167.3,59.1z"/>
<path class="st2" d="M179.5,82h44.3c1.6,0,2.8,1.3,2.8,2.8v0c0,1.6-1.3,2.8-2.8,2.8h-44.3c-1.6,0-2.8-1.3-2.8-2.8v0
	C176.7,83.3,177.9,82,179.5,82z"/>
<path class="st2" d="M215.5,96.9h8.4c1.6,0,2.8,1.3,2.8,2.8l0,0c0,1.6-1.3,2.8-2.8,2.8h-8.4c-1.6,0-2.8-1.3-2.8-2.8l0,0
	C212.6,98.2,213.9,96.9,215.5,96.9z"/>
<path class="st4" d="M94.7,74.8h42.1c1.6,0,2.8,1.3,2.8,2.8v0c0,1.6-1.3,2.8-2.8,2.8H94.7c-1.6,0-2.8-1.3-2.8-2.8v0
	C91.9,76,93.1,74.8,94.7,74.8z"/>
<path class="st4" d="M94.7,89.3H107c1.6,0,2.8,1.3,2.8,2.8l0,0c0,1.6-1.3,2.8-2.8,2.8H94.7c-1.6,0-2.8-1.3-2.8-2.8l0,0
	C91.9,90.6,93.1,89.3,94.7,89.3z"/>
<path class="st2" d="M183.5,67.1h40.3c1.6,0,2.8,1.3,2.8,2.8v0c0,1.6-1.3,2.8-2.8,2.8h-40.3c-1.6,0-2.8-1.3-2.8-2.8v0
	C180.7,68.4,181.9,67.1,183.5,67.1z"/>
<line class="st5" x1="88.6" y1="40.3" x2="229.9" y2="40.3"/>
<line class="st5" x1="93.1" y1="35.3" x2="124.1" y2="35.3"/>
</svg>
