<?xml version="1.0" encoding="utf-8"?>
<!-- Generator: Adobe Illustrator 26.0.1, SVG Export Plug-In . SVG Version: 6.00 Build 0)  -->
<svg version="1.1" id="レイヤー_1" xmlns="http://www.w3.org/2000/svg" xmlns:xlink="http://www.w3.org/1999/xlink" x="0px"
	 y="0px" viewBox="0 0 300 208" style="enable-background:new 0 0 300 208;" xml:space="preserve">
<style type="text/css">
	.st0{fill:#F2F2F2;}
	.st1{fill:#CCCCCC;}
	.st2{fill:#585656;}
	.st3{fill:#3F3D56;}
	.st4{fill:#E6E6E6;}
</style>
<g>
	<path class="st0" d="M273,126.5c0,6.4-0.7,12.7-2.2,18.9c-8.5,35.8-40.8,62.5-79.2,62.5c-45,0-81.4-36.5-81.4-81.4
		c0-30.2,16.7-58,43.5-72.1c0,0,0,0,0,0c2.2-1.2,4.5-2.2,6.8-3.2c12.9-5.3,26.9-7.2,40.7-5.6c1.2,0.1,2.4,0.3,3.5,0.5
		c1.9,0.3,3.8,0.7,5.6,1.1c0.5,0.1,0.9,0.2,1.4,0.3c0.1,0,0.2,0,0.3,0.1s0.2,0,0.3,0.1h0c0.2,0,0.4,0.1,0.5,0.1
		c0.4,0.1,0.9,0.2,1.3,0.4c1.3,0.4,2.6,0.8,3.9,1.2c0.2,0.1,0.4,0.1,0.6,0.2c0.1,0,0.2,0.1,0.3,0.1c0.1,0,0.2,0.1,0.3,0.1
		c2.9,1.1,5.8,2.3,8.5,3.7l-4.3-1.4c13.7,7,25.5,19.4,35.3,36.9c0.2-1.2,1.3-2,2.5-1.8c0.6,0.1,1.2,0.5,1.5,1
		c0.1,0.1,0.1,0.2,0.2,0.3c0.5,1.1,0,2.4-1.1,2.9c0,0,0,0,0,0c0,0,0,0,0,0l7,18.2c0.5,0,1,0.1,1.5,0.3c0.1-0.6,0.3-1.2,0.6-1.7
		c0.1,0.6,0.3,1.2,0.4,1.8c0,0.2,0.1,0.5,0.1,0.7v0c0.2,1.2,0.5,2.4,0.6,3.6c0,0.1,0,0.2,0,0.3v0c0.1,0.5,0.1,1,0.2,1.5
		c0.3,2.6,0.5,5.2,0.6,7.8C272.9,124.9,273,125.7,273,126.5z"/>
	<path class="st1" d="M270.3,114.1l-0.8,0.3c-0.6-1.5-1.1-3-1.7-4.5c-12.1-30.4-28.4-50.2-48.4-58.7c-0.3-0.1-0.6-0.3-0.9-0.4
		c-0.4-0.2-0.8-0.3-1.2-0.5c-0.7-0.3-1.3-0.5-2-0.7c-0.9-0.3-1.8-0.6-2.7-0.9c-0.2-0.1-0.4-0.1-0.7-0.2c-0.8-0.2-1.6-0.4-2.3-0.6
		c-18.7-4.5-37.9,0.2-55.9,6.5c0,0,0,0,0,0c-5.5,1.9-10.9,4-16.2,6C118,68,101,74.6,89.1,68.9c-0.5-0.2-0.9-0.5-1.3-0.7
		c-0.5-0.3-0.9-0.6-1.4-0.9c-0.1,0-0.1-0.1-0.2-0.1c-0.5-0.4-1-0.7-1.4-1.1c-0.7-0.6-1.3-1.2-2-1.9c-0.1-0.1-0.2-0.3-0.4-0.4
		c0,0,0-0.1-0.1-0.1c-0.9-1.1-1.7-2.3-2.3-3.5c-4.1-7.6-3.9-17.7-3.7-27.5c0.2-10.6,0.4-20.7-5-26.6c-0.8-0.8-1.6-1.6-2.6-2.2
		c-1-0.6-2-1.1-3.1-1.5c-11.5-4.2-31.4,4-59.1,24.5c-0.9,0.7-1.8,1.4-2.8,2.1l-0.5-0.7c0.9-0.7,1.9-1.4,2.8-2.1
		C19.1,16.5,30.6,9.5,40.1,5.3c10.9-4.8,19.6-6,25.9-3.7c1.1,0.4,2.2,0.9,3.2,1.6c1,0.6,1.9,1.4,2.7,2.3c5.7,6.1,5.5,16.4,5.3,27.3
		c-0.2,9.2-0.4,18.7,3.1,26c0.8,1.6,1.7,3.2,2.9,4.6c0.1,0.1,0.1,0.2,0.2,0.2c0.6,0.7,1.3,1.3,1.9,1.9c0.4,0.4,0.8,0.7,1.3,1
		c0.5,0.4,1,0.7,1.6,1c0.6,0.4,1.2,0.7,1.9,0.9c11.6,5.1,28.2-1.3,47.1-8.7c7.5-2.9,15.3-5.9,23.3-8.4c13.3-4.2,27-7,40.7-5.6
		c1.1,0.1,2.2,0.2,3.3,0.4c2,0.3,3.9,0.7,5.9,1.2c0.5,0.1,0.9,0.2,1.4,0.4c0.2,0,0.4,0.1,0.5,0.1c0.2,0,0.4,0.1,0.5,0.1
		c0.9,0.3,1.8,0.6,2.7,0.9c0.8,0.3,1.5,0.5,2.3,0.8c0.3,0.1,0.6,0.2,0.8,0.3c0.2,0.1,0.5,0.2,0.8,0.3c1.4,0.6,2.8,1.2,4.2,1.9
		c13.7,7,25.5,19.4,35.3,36.9c0.4,0.8,0.9,1.6,1.3,2.4c1,1.9,2,3.8,3,5.8c1.9,3.9,3.7,8.1,5.5,12.5c0.4,1,0.8,2,1.2,3
		C269.9,113.2,270.1,113.7,270.3,114.1z"/>
	<circle class="st2" cx="3.5" cy="28.6" r="3.5"/>
	<circle class="st2" cx="69" cy="3.5" r="3.5"/>
	
		<rect x="85.3" y="42.5" transform="matrix(0.6775 -0.7355 0.7355 0.6775 -21.8854 84.7691)" class="st3" width="0.9" height="49.8"/>
	<circle class="st2" cx="67.4" cy="50.5" r="2.2"/>
	<path class="st4" d="M103.5,25.7l-5.9,4.5l-8.1,6.2c-4.2,3.2-7,7.8-7.8,13l-1.5,9.3L80,60.2l-0.2,1.2l-0.2,1l-0.5,3.1
		c-0.1,0.5,0.3,1.1,0.8,1.2c0.3,0.1,0.7-0.1,0.9-0.3c-0.1-1.9,1.3-3.5,3.2-3.6c0.2-6.8,3.9-9.9,9.6-10.9l0.1-0.1l0,0.1
		c0.9,7.5-1.4,11.4-6.1,12.5l-0.1,0.2c0,0.1,0.1,0.1,0.1,0.2c0.8,1.8,0,3.8-1.8,4.6c-0.2,0.1-0.4,0.2-0.6,0.2c0,0.1,0,0.2,0,0.3
		c0.1,0.5,0.7,0.9,1.2,0.7c0.1,0,0.2-0.1,0.3-0.1l1-0.6l0.8-0.5l0.6-0.4l0.9-0.6l10.7-6.6c4.4-2.7,7.6-7,8.8-12l2.5-10l1.8-7.2
		L103.5,25.7z"/>
	<circle class="st2" cx="103.5" cy="84" r="2.2"/>
	<path class="st1" d="M292.3,144.7l-0.5-6.7v0l-0.3-3.4c-0.4-5.2-2.8-10.1-6.7-13.6l-0.1,0l0,0l-12-10.8c-0.3-0.3-0.8-0.4-1.2-0.1
		c-0.1,0.1-0.2,0.1-0.2,0.2c-0.1,0.1-0.1,0.2-0.2,0.3c1.6,1,2,3.1,1.1,4.7l0.4,1.4v0c4,3,5,7.5,3.7,13.1l0,0.1l0-0.1
		c-5.1-3.1-8.2-7.1-7.7-12.8c-1.9-0.3-3.2-2.1-2.8-4.1c0,0,0-0.1,0-0.1c-0.1,0-0.2,0-0.3,0c-0.1,0-0.2,0-0.3,0
		c-0.4,0.1-0.7,0.5-0.7,0.9l-0.4,16.5c-0.1,5.2,1.8,10.2,5.3,13.9l1.4,1.5l5.6,6.1l5,5.5l9.6-4.2l0,0l1.8-0.8L292.3,144.7z"/>
	<circle class="st2" cx="84.4" cy="65.9" r="2.5"/>
	<circle class="st3" cx="94.5" cy="50.2" r="1.8"/>
	<polygon class="st3" points="270,112.7 269.8,112.8 269.2,113 268,109.9 263.1,97.3 263.1,97.3 261,91.7 260.9,91.7 260.3,89.9 
		261.1,89.6 261.8,91.5 268.8,109.8 	"/>
	<path class="st2" d="M261.9,91.5C261.9,91.5,261.8,91.5,261.9,91.5c-0.3,0.1-0.6,0.2-0.9,0.2h0c-0.3,0-0.5-0.1-0.8-0.2
		c-0.5-0.2-0.9-0.6-1.2-1.1c-0.2-0.4-0.2-0.8-0.2-1.2c0.2-1.2,1.3-2,2.5-1.8c0.6,0.1,1.2,0.5,1.5,1c0.1,0.1,0.1,0.2,0.2,0.3
		C263.5,89.7,263,91,261.9,91.5C261.9,91.5,261.9,91.5,261.9,91.5z"/>
	<path class="st2" d="M271.8,114.4C271.8,114.4,271.8,114.4,271.8,114.4L271.8,114.4c-0.1,0.2-0.2,0.4-0.4,0.6
		c-0.3,0.3-0.6,0.6-1,0.8c-0.4,0.2-0.9,0.3-1.4,0.2v0c-1-0.1-1.8-0.7-2.2-1.6c-0.2-0.5-0.3-1-0.2-1.6c0.2-0.9,0.8-1.6,1.6-2
		c0,0,0.1,0,0.1-0.1c0.1,0,0.1,0,0.2-0.1c0.2,0,0.3-0.1,0.5-0.1c0.1,0,0.1,0,0.2,0c0.4,0,0.8,0.1,1.1,0.2c0.2,0.1,0.4,0.2,0.6,0.4v0
		c0.1,0.1,0.2,0.1,0.3,0.2v0c0.2,0.2,0.4,0.5,0.6,0.8C272.2,112.9,272.2,113.7,271.8,114.4z"/>
	<circle class="st3" cx="277.2" cy="131.2" r="1.8"/>
	<polygon class="st3" points="242.1,57.3 241.8,58.1 239.6,57.4 227.8,53.6 223.5,52.2 219.4,50.9 218.5,50.6 217.3,50.2 
		212.5,48.7 211.9,48.5 209.7,47.8 204.7,46.2 204.4,46.1 165.9,33.7 163.5,32.9 163.8,32.1 166,32.8 210.5,47.1 212.3,47.7 
		212.8,47.9 214.1,48.3 218,49.5 218.6,49.7 219.2,49.9 239.7,56.5 	"/>
	<path class="st1" d="M219.4,50.3c0-0.1-0.1-0.2-0.1-0.3l0,0c-0.1-0.2-0.3-0.4-0.6-0.4c0,0-0.1,0-0.1,0h0c0.2,1.9-1.2,3.6-3.2,3.8
		c-0.1,0-0.1,0-0.2,0l0,0c0.2,6.5-1.9,11.2-8.5,12.6l-0.1,0.1l0-0.1c-3.6-6.2,0.2-10.7,5.1-15c-0.4-1.4,0-2.9,1.1-3.8l0,0
		c-0.1-0.2-0.2-0.5-0.4-0.6c-0.4-0.3-0.9-0.2-1.2,0l-0.8,0.6l-0.2,0.1l0,0l-0.6,0.5l-0.2,0.2l-11,8.9c-4,3.2-6.6,7.9-7.2,13
		L190,80.1l-0.9,7.4l11.2,5.5l5.3-5.2l7.2-7.1c3.8-3.7,5.9-8.7,6.1-13.9l0.5-15.5l0-0.3l0-0.4C219.4,50.4,219.4,50.4,219.4,50.3z"/>
	<circle class="st2" cx="163.9" cy="32.9" r="2.2"/>
	<circle class="st2" cx="241.8" cy="57.3" r="2.2"/>
	<circle class="st3" cx="206.1" cy="67.5" r="1.8"/>
	<path class="st2" d="M115.6,41.4c-0.9,0-1.9-0.3-2.6-0.8c-8.4-0.7-13.9-4.3-16.4-10.9c-1.1-0.7-1.9-1.9-2.1-3.2
		c-0.2-1.3,0.1-2.7,0.9-3.7c1.6-2,4.5-2.5,6.6-1l0.9,0.6c0-0.9,0.3-1.8,0.8-2.6l0.1-0.1c0.6-0.9,1.8-1.4,2.9-1c1.1,0.3,2,1.3,2,2.5
		c0,0.2,0,0.4,0.1,0.7c0.5,2.7,3.2,4.5,5.9,4c0.5-0.1,1.1-0.3,1.5-0.6c0.8-0.5,1.9-0.5,2.7,0c0.8,0.4,1.3,1.2,1.3,2.1
		c0.1,2-1.1,3.8-2.9,4.6l0.9,0.6c2.2,1.4,2.9,4.4,1.5,6.7c-0.7,1.1-1.8,1.9-3.1,2.1C116.3,41.3,115.9,41.4,115.6,41.4z"/>
	<path class="st2" d="M198.3,100.8c-0.3,0-0.5,0-0.8-0.1c-1-0.3-1.7-1.2-1.9-2.2l0-0.1c-0.4-2.7-3-4.6-5.7-4.2
		c-0.8,0.1-1.6,0.4-2.3,0.9c-1.2,0.8-2.8,0.6-3.6-0.6c-0.2-0.3-0.4-0.7-0.5-1.1c-0.3-2,0.6-3.9,2.3-4.9l-1.1-0.5
		c-1.2-0.6-2.1-1.6-2.5-2.9c-0.4-1.3-0.2-2.7,0.4-3.8c1.3-2.2,4.1-3,6.4-1.8c7.6-1.1,13.4,1.9,17.5,8.6c1.2,0.6,2.1,1.6,2.5,2.9
		c0.4,1.3,0.2,2.7-0.4,3.8c-1.3,2.2-4.1,3-6.4,1.8l-1-0.5c0.1,0.9,0,1.9-0.5,2.7c-0.2,0.4-0.4,0.7-0.7,1.1
		C199.7,100.5,199,100.8,198.3,100.8z"/>
	<path class="st2" d="M283.5,164.9c-1.3,0-2.5-0.7-3-1.9l0-0.1c-0.4-0.9-0.5-1.8-0.3-2.7l-1.1,0.5c-2.4,1.1-5.3-0.1-6.3-2.5
		c0,0,0-0.1,0-0.1c-1-2.5,0.2-5.3,2.7-6.3c3.1-7.2,8.9-10.1,17.8-7.7c2.3-1.1,5.1-0.1,6.3,2.1l0,0c0.6,1.2,0.7,2.6,0.3,3.8
		c-0.4,1.3-1.4,2.3-2.6,2.8l-1.1,0.5c0.8,0.5,1.4,1.2,1.8,2.1c0.1,0.1,0.1,0.2,0.1,0.4c0.4,1.2,0.1,2.6-0.9,3.4
		c-1,0.9-2.4,1.2-3.6,0.6c-0.6-0.3-1.3-0.4-2-0.4h0c-1.9,0-3.6,1.1-4.5,2.8c-0.1,0.2-0.2,0.4-0.3,0.6
		C286.1,164,284.9,164.9,283.5,164.9C283.5,164.9,283.5,164.9,283.5,164.9z"/>
	<circle class="st2" cx="214.9" cy="49.5" r="2.4"/>
</g>
</svg>
