<?xml version="1.0" encoding="utf-8"?>
<!-- Generator: Adobe Illustrator 26.0.1, SVG Export Plug-In . SVG Version: 6.00 Build 0)  -->
<svg version="1.1" id="レイヤー_3のコピー_2"
	 xmlns="http://www.w3.org/2000/svg" xmlns:xlink="http://www.w3.org/1999/xlink" x="0px" y="0px" viewBox="0 0 100 142.5"
	 style="enable-background:new 0 0 100 142.5;" xml:space="preserve">
<g>
	<g>
		<g>
			<g>
				<path d="M24.6,81c4.3,0,4.6-3.5,4.6-13.2V45.9c0-9.7-0.3-13.2-4.6-13.2v-0.5h13.3v0.5c-4.3,0-4.6,3.5-4.6,13.2v21.9
					c0,9.7,0.3,13.2,4.6,13.2v0.5H24.6V81z M53.4,32.3h4.9c0.9,0.8,1.5,2.8,1.5,4.6c0,15.2-24,16.8-24,20c0,2.8,8.9,1.4,13.7,8.5
					c4.7,6.9,9.3,15.6,15,15.6v0.5h-7.6c-2.3,0-3.7-3.1-11.5-14.8c-5.5-8.2-10.1-7-10.1-9.8c0-4.4,19.8-6.2,19.8-19.9
					C55.2,35.1,54.5,33,53.4,32.3z"/>
			</g>
			<g>
				<path d="M60.2,66.9c6.1,0,10.3,0.9,14.1,2v5.9h-0.5c0,0-3-7.4-13.6-7.4c-9.2,0-14.3,5-14.3,9.9c0,12.1,31.3,7.8,31.3,23.4
					c0,6.2-7.1,12.3-18.6,12.3c-6.5,0-12.3-3-16-5.4v-5.9h0.5c0,0,6.5,10.5,18.3,10.5c7.2,0,12.9-4.7,12.9-9.7
					c0-13.3-31.9-9.6-31.9-24.1C42.5,72.3,48.8,66.9,60.2,66.9z"/>
			</g>
		</g>
	</g>
	<path d="M50.8,3.8c25.1,0,45.4,20.4,45.4,45.4v44c0,25.1-20.4,45.4-45.4,45.4h-1.6c-25.1,0-45.4-20.4-45.4-45.4v-44
		c0-25.1,20.4-45.4,45.4-45.4H50.8 M50.8,2.8h-1.6C23.6,2.8,2.8,23.6,2.8,49.2v44c0,25.6,20.8,46.4,46.4,46.4h1.6
		c25.6,0,46.4-20.8,46.4-46.4v-44C97.2,23.6,76.4,2.8,50.8,2.8L50.8,2.8z"/>
	<path d="M50.8,0.9c26.6,0,48.3,21.7,48.3,48.3v44c0,26.6-21.7,48.3-48.3,48.3h-1.6c-26.6,0-48.3-21.7-48.3-48.3v-44
		c0-26.6,21.7-48.3,48.3-48.3H50.8 M50.8,0h-1.6C22.1,0,0,22.1,0,49.2v44c0,27.1,22.1,49.2,49.2,49.2h1.6
		c27.1,0,49.2-22.1,49.2-49.2v-44C100,22.1,77.9,0,50.8,0L50.8,0z"/>
</g>
</svg>
