<?xml version="1.0" encoding="utf-8"?>
<!-- Generator: Adobe Illustrator 26.0.1, SVG Export Plug-In . SVG Version: 6.00 Build 0)  -->
<svg version="1.1" id="レイヤー_1" xmlns="http://www.w3.org/2000/svg" xmlns:xlink="http://www.w3.org/1999/xlink" x="0px"
	 y="0px" viewBox="0 0 327.9 153" style="enable-background:new 0 0 327.9 153;" xml:space="preserve">
<style type="text/css">
	.st0{fill:#585656;}
</style>
<g id="レイヤー_23_00000076574771617905558520000013533099310430981564_">
</g>
<g>
	<g>
		<g>
			<path class="st0" d="M286,31.6l3.2-2.2c-0.2-0.3-0.2-0.6-0.3-0.9l0,0l-2,0.5l-0.9-0.7l0.9-0.7l2,0.5l0,0c0-0.3,0.1-0.6,0.3-0.9
				L286,25l0,0c-0.3-0.2-0.6-0.4-0.9-0.6c-1.8-0.8-3.8,0-4.7,1.7c-0.1,0-0.3,0-0.4,0c-1.2,0-2.2,1-2.2,2.2s1,2.2,2.2,2.2
				c0.2,0,0.3,0,0.4,0c0.4,0.7,1,1.3,1.8,1.7C283.5,32.7,285,32.4,286,31.6L286,31.6z"/>
		</g>
		<g>
			<path class="st0" d="M289.6,26.7c0.4-0.4,0.8-0.6,1.4-0.6l0,0l-0.5-2l0.7-0.9l0.7,0.9l-0.5,2l0,0c0.5,0,1,0.3,1.4,0.6l3-2
				c0.9-0.9,0.9-2.3,0-3.2c-0.6-0.6-1.5-0.8-2.3-0.5c0-1.2-1-2.1-2.2-2.1c-1.2,0-2.2,0.9-2.2,2.1c-0.8-0.3-1.7-0.1-2.3,0.5
				c-0.9,0.9-0.9,2.3,0,3.2L289.6,26.7z"/>
		</g>
		<g>
			<path class="st0" d="M292.8,29.8c-0.4,0.4-0.8,0.6-1.4,0.6c0,0,0,0,0,0l0.5,2l-0.7,0.9l-0.7-0.9l0.5-2c0,0,0,0,0,0
				c-0.5,0-1-0.3-1.4-0.6l-3,2c-0.9,0.9-0.9,2.3,0,3.2c0.6,0.6,1.5,0.8,2.3,0.5c0.1,1.2,1,2.1,2.2,2.1c1.2,0,2.2-0.9,2.2-2.1
				c0.8,0.3,1.7,0.1,2.3-0.5c0.9-0.9,0.9-2.3,0-3.2L292.8,29.8z"/>
		</g>
		<g>
			<path class="st0" d="M302.4,26c-0.2,0-0.3,0-0.4,0c-0.9-1.7-2.9-2.4-4.7-1.7c-0.3,0.2-0.6,0.3-0.9,0.6l0,0l-3.2,2.2
				c0.2,0.3,0.2,0.6,0.3,0.9l0,0l2-0.5l0.9,0.7l-0.9,0.7l-2-0.5l0,0c0,0.3-0.1,0.6-0.3,0.9l3.2,2.2l0,0c1,0.8,2.4,1.1,3.8,0.6
				c0.8-0.3,1.5-0.9,1.8-1.7c0.1,0,0.3,0,0.4,0c1.2,0,2.2-1,2.2-2.2S303.6,26,302.4,26z"/>
		</g>
		<g>
			<circle class="st0" cx="291.2" cy="28.3" r="1.7"/>
		</g>
	</g>
	<path class="st0" d="M291.2,0c-15.6,0-28.3,12.7-28.3,28.3s12.7,28.3,28.3,28.3c15.6,0,28.3-12.7,28.3-28.3S306.8,0,291.2,0z
		 M291.2,52.7c-13.5,0-24.5-11-24.5-24.5s11-24.5,24.5-24.5c13.5,0,24.5,11,24.5,24.5S304.7,52.7,291.2,52.7z"/>
	<g>
		<path class="st0" d="M284,21c4.4-4.4,6.7-10.1,6.7-16.3c-7,0.2-12.7,3.8-12.7,8.2c0,0.9,0.3,1.8,0.7,2.7c0,0-0.1,0.1-0.2,0.2
			c-0.8-0.5-1.7-0.7-2.7-0.7c-4.4,0-8.1,5.7-8.2,12.7C273.8,27.8,279.6,25.4,284,21z"/>
		<path class="st0" d="M298.4,21c4.4,4.4,10.1,6.7,16.3,6.7c-0.2-7-3.8-12.7-8.2-12.7c-0.9,0-1.8,0.3-2.7,0.7c0,0-0.1-0.1-0.2-0.2
			c0.5-0.8,0.7-1.7,0.7-2.7c0-4.4-5.7-8.1-12.7-8.2C291.7,10.9,294,16.6,298.4,21z"/>
		<path class="st0" d="M298.4,35.5c-4.4,4.4-6.7,10.1-6.7,16.3c7.1-0.2,12.7-3.8,12.7-8.2c0-0.9-0.3-1.8-0.7-2.7
			c0,0,0.1-0.1,0.2-0.2c0.8,0.5,1.7,0.7,2.7,0.7c4.4,0,8.1-5.7,8.2-12.7C308.5,28.7,302.8,31.1,298.4,35.5z"/>
		<path class="st0" d="M284,35.5c-4.4-4.4-10.1-6.7-16.3-6.7c0.2,7,3.8,12.7,8.2,12.7c0.9,0,1.8-0.3,2.7-0.7c0,0,0.1,0.1,0.2,0.2
			c-0.5,0.8-0.7,1.7-0.7,2.7c0,4.4,5.7,8.1,12.7,8.2C290.7,45.6,288.3,39.9,284,35.5z"/>
	</g>
	<g>
		<g>
			<g>
				<path class="st0" d="M284.5,64.2c0.4,0.3,0.7-0.1,1.5,0.7c0.3-0.3,0.3-0.3,0.3-0.3l0.2,0.3c0.7-0.2,0.6-0.1,1.1-0.1l0,0.2
					c0.3-0.1,0.6,0,1.2,0v0c0.3,0.3,0.3,0.3,0.6,0.3v0l-0.2,0.1l0,0.1c0.6,0.2,1.6,0.7,1.8,0.8l0,0.2l0.7,0.5
					c-0.2,0.2,0.3,0.5,0.5,1.2c0.1,0.7,0.2,1.1,0.1,2.3l-0.5,0.3c0,0.3,0,0.3,0,0.5l-0.5,0.2c-0.3,0.5-0.5,0.6-0.7,1.2
					c-0.2,1.1-0.3,1.1-0.5,1.7c0.5-0.2,0.5-0.3,0.8-0.3c0.4-0.2,0.7-0.4,3.4-1.5c0.1-0.7,0.1-0.6,0.4-0.8l0.3-0.1
					c0.1-0.2,0.1-0.4,0.3-0.7c0.1-0.2,0.3-0.2,0.5-0.2l0.1-0.1c0.3-0.1,0.3,0,0.6,0l0.1-0.3l0,0l0.3-0.3l0.6-0.3l0,0.2
					c0.4-0.3,0.2-0.1,0.6-0.1c0.2,0.2,0.1,0.2,0.3,0.8c-0.2,0.1,1.5,0.4,2.1,0.8c1.1,0.5,1.1,0.3,2.4,0.9c0.4,0.6,0.6,0.6,0.6,0.9
					c0.5,0.2,0.5,0.1,0.6,0.3c-0.2,0.8-0.1,0.5-0.5,1.1l-1.2,1.1l-0.2,0.2l-0.5,0.2l0.5,0.2l0,0.1c-0.4,0-0.7,0.2-0.8,0.4l0,0.2
					c-0.1,0-1.1-0.1-2.1,0.5v-0.1c-0.8,0.3-1.5,0.4-2.6,1c-1.1,0.6-1.2,0.8-1.8,1.2l0,0.1c-0.7,0.5-0.8,0.4-1.3,0.8l-1.4,0.8
					c-1.3,0.6-1.6,0.8-2.3,1.2l0,0c-0.5,0.2-0.5,0.1-1.2,0.8l-0.1,0.1l-0.2,0.1c-0.1,0.1-0.1,0-0.2,0.7c0,0.6,0,1.8-0.2,2.1
					c-0.2,0.3-0.2,1-0.2,1.9l0,0.1c-0.2,1.6,0.2,1.2,0.2,1.8c0,0.8,0.2,1.7,0.4,2.3c0.4,0.1,0.5,0.5,1.5,0.8
					c1.5,0.1,1.7,0.7,8.6-1.2c0-0.2,0.1-0.3,0.3-0.5c0.1,0.1,0.2,0,0.3,0l-0.2-0.5c0.2,0,0.3,0,0.6-0.1c0.2-0.2,0.2-0.2,0.3-1.2
					c0.2-1.4,0.6-1.6,0.8-4.6c0.3-3,0.7-3.2,1-3.8c0.3-0.8,0.2-0.8,0.4-1.2c0.3-0.1-0.2,0.9,0,1.1c0.2,0.1,0.3,0.2,0,0.9
					c-0.3,1.2,0.1,1.7,0.1,1.7l-0.1-0.1h0c0,0.2,0.1,0.8,0.1,1l-0.1-0.2c-0.2,1,0.3,1.7,0.5,2.2c0.2,1,0.4,0.9,0.5,1.4l0.1-0.1V88
					h0.1c0.1,0.3,0.2,0.7,0.4,0.9h0.4l0.1-0.3c0.3,0.3,0.2,0.3,0.3,0.4h0c0.1-0.1,0-0.2,0.1-0.5c0,0.8,0.4,1.4,0.5,1.8
					c0.2,0,0.3,0,0.5-0.1c0,0.2,0.2,0.4,0.5,0.6l0.2-0.2l0.1,0.1c0.2,0.2,0.4,0.2,0.5,0.2l0.5,0.6l0.5,0.2l0.2-0.1l0.2,0.1l0.3,0.3
					c0.4,0.1,0.4,0.3,1.4,0.7c0,0.2,0,0.3,0.1,0.5c0.6,0.3,0.6,0.3,0.9,0.5c0.4,0.3,0.8,1.6,0.9,1.6c-0.5,0.8-0.5,0.7-0.6,0.9l0,0.2
					l0.3,0.2c-0.5,0.1-0.4,0-0.6,0.2l-0.1,0.7c-0.1,0-0.2,0.1-0.3,0.1c0,0.1,0,0.2,0,0.3c-0.6,0.1-0.5,0-0.8,0.2l-0.1,0.2
					c-0.4,0.1-0.6,0.2-0.8,0.3l0,0.3c-0.2,0-0.3,0.1-0.5,0.1s-0.1,0-1.2,0.2c-0.5,0-1.3,0.3-2.5,0.7c-1.1,0.4-2.1,0.7-3,0.9
					c-1.7,0.4-3.3,0.6-4.5,0.7c-2.1,0.3-4.5,0.5-6.3,0.2c-0.5,0-1.2-0.2-2.1-0.5c-0.9-0.3-1.6-0.5-2-0.7c-0.7-0.5-1.6-0.6-3.7-2.6
					c-1.4-1.6-1.4-1.9-1.6-2.4c-0.1-0.3-0.2-0.6-0.3-1.1l-0.5-4c-0.2,0.1-0.3,0.1-0.5,0.3c0,0.1-1.2,0-2.3-0.2l-2.3-0.8
					c-0.8-0.7-1.3-1.1-1.5-1.1l-0.7-0.6l-0.1,0c0-0.1,0-0.1-0.3-0.3c-0.2-0.1-0.3-0.2-0.3-0.3l-0.1-0.2l-0.5-0.3l-0.2-0.3l-0.6-0.5
					l-0.2-0.5l0.3-0.3l0.2,0l0.1-0.3h0.3l-0.1-0.3l0.4-0.3l0-0.2l0.2-0.1l0.1-0.2l0.4-0.1l-0.2-0.2h0.1c0.1-0.2,0.1-0.3,0.2-0.4
					c0.9-0.3,0.9-0.2,1.4-0.5c0-0.2,0.1-0.2,0.3-0.4c0.8-0.5,1-0.6,1.3-0.6c0.5-0.3,0.7-0.3,5-2.5c0-0.1,0.1-0.1,0.1-0.5
					c0-0.4,0.2-1.9,0.3-3.1c0.2-1.3,0.4-1.9,0.4-2.2c0-0.2,0.3-1.3,0.3-2.1c0-0.4,0.5-1.9,0.5-3.1c0.1-1.2,0.2-2.4,0-2.4l0-0.2
					c0.3,0,0.5-0.2,0.7-0.3l-0.3-0.4c0,0,0.6-0.3,1.1,0.2l0.2,0c0.1,0,0-0.6-0.3-0.8c0-0.1,0.1-0.2,0.3-0.4
					C284.4,64,284.4,64,284.5,64.2z"/>
				<path class="st0" d="M291.2,110.6c0.8,0.5,0.8,0.7,1.8,1.6c0.5,0.2,0.6,1.3,0.3,1.6l0,0.2c5.2-0.9,6.6-0.8,6.8-1
					c0.3-0.2,0.6-0.5,1.5-0.1c0.7,0.2,1.5,0.6,2.1,1.1c0.8,0.8,0.8,0.5,1,0.6c0.8,0.9,1.1,1.5,1.2,1.7l0.3,0.5l0.1,0.1
					c0,0.2,0,0,0.6,0.9c0.9,1.2,0.7,0.8,1.4,2.1l0.5,0.4c0.4,0.5,0.5,0.6,0.1,1.5c-0.4,0.8-0.5-0.2-1.7,0.6
					c-0.6,0.5-1.2,0.1-1.9,0.5c-0.6,0.3-0.8,0.1-1.2,0.1c-0.4-0.2-0.5-0.4-0.8-0.4l-0.1-0.1c-0.8-0.6-0.5-0.2-1.6-1
					c-0.1-0.1-0.1-0.2-0.2-0.3l-0.3-0.2l-0.2-0.2c-0.1,0-0.8,0-1.2,0.3l-0.1,0l0-0.2c0,0-0.8,0-1.4,0.3c-0.3,0.2-0.8,0.4-0.9,0.4
					l0.2-0.2l0.1-0.1V121c-0.2,0-0.1,0.1-0.3,0.1l-0.1-0.2l0-0.1l0.2-0.2l0-0.1c-0.3,0.1-0.6,0-1.2,0.3v-0.1
					c-0.4,0.1-0.4,0.1-0.6,0.1l0-0.1l0.2-0.1l0-0.1l0.1-0.1l-0.2,0.1l0.7-0.5c0.2-0.2,0.8-0.6,1.9-1.2c0.5-0.6,0.8-0.8,0.9-1.1
					l-0.3-0.4V117l0.2-0.1l0.2-0.5l0.2-0.1l0.1-0.2l0-0.2c0,0-0.2,0-0.2,0c0-0.1-0.6,0-1.7,0.1c-3.5,0.4-4.1,0.7-4.3,0.8l-0.7,1.1
					c-0.4,0.2-0.7,0.4-0.9,0.3c-0.1,0.1-0.2,0.2-0.3,0.3c-0.2,0-0.6,0-0.9,0.2c-0.9-0.5-0.8-0.3-1.4-0.1l0,0.3l-0.5-0.5
					c-0.3-0.2-0.3-0.3-0.9,0c-0.6,0.2-1.7,0.5-2.6,1c-0.9,0.5-2.1,0.9-3.1,1.1c-0.9,0.2-1,0.2-1.2,0.4l0,0.2c0,0.1-0.5-0.1-1,0.2
					c0,0.2-0.2,2.4-0.5,3.8c-0.5,2-0.6,1.6-0.6,2.4c-0.7,0.3-0.7,0.1-1,0.4l-0.2,0.5c-0.1-0.1-0.2-0.2-0.3-0.2l-0.2,0.2l-0.1,0.1
					l-0.2,0.2c-0.5-0.3-0.2-0.1-0.6-0.1l-0.2,0.3l-0.2,0.1c-0.6-0.4-0.7-0.5-1.8-1.2c-0.8-0.8-0.5-0.4-1.2-1.8l-0.5-0.1
					c0-1.1,0.2-1.7,0.2-1.9l0.5-1.4l0.7-2c0.5-1.1,0-1.3,0.2-1.7c0.2-0.5,0.3-0.6,0.5-1.7l-0.1-0.1c0.2,0.1,0.4,0.2,0.6,0.2l0-1.1
					c0.3-0.1,0.2-0.1,0.7,0.1l0.3-0.2c0.4,0.3,0.5,0.3,0.6,0.3c0.6,0,0.9,0.2,1.9,0.9l0.1,0.2c0.5-0.1,0.3,0.1,0.9-0.2
					c0.9-0.4,1.1-0.3,6.1-1.6c-0.3-0.5,0.2-1.8-0.1-2.1c-0.3,0-0.5-0.2-0.6-0.4c0-0.1-0.1-0.5-0.1-1c-0.1,0-0.1-0.2-0.1-0.3
					c0.1,0,0.2,0,0.4-0.1l0-0.4c0.3-0.1,0.2-0.1,0.9-0.6c0.7-0.6,0.8-0.6,1.1-0.6c0.3,0,0.4,0.1,0.6,0.1c0.3-0.2,1.4-0.2,1.6-0.2
					C289.9,110.1,290.2,110,291.2,110.6z M293.9,120.1c0.1,0.1,0.5,0.5,0.8,0.6c0.5,0,1,0.3,1.5,0.6l0.6,0.7l0.5,0.3
					c0,0.4,0.5,1.1,0.5,1.1l-0.3,0.2v0.1l0.2,0.2l-0.4,0.3l0,0.3l-0.6,0.3c-0.2,0.2-0.2,0.3-0.3,0.6l0.3,0.2l-0.2,0.2l-1.4,0.7v-0.2
					l-0.5,0.2l0.1,0.1l-2.3,1.2c0,0.2,0,0.5,0.1,1.4c0.3-0.1,1.7-0.3,2.1,0.5l0.9,1.1c0.7,0.3,1.2,0.8,1.8,1.2
					c0.3,0.5,0.3,0.2,0.3,1.1l0.2,0.2c0.2,0.5,0.4,0.6-0.3,1.6l-0.2,0.2l-0.3,0.4l-0.3,0.2c0,0.1,0,0.2-0.1,0.3
					c-0.2,0-0.4,0.2-1.4,0.6v0.3c-0.3,0-0.2-0.1-1.4,1.1l0.1-0.3h0.1l0.1-0.1c0-0.1,0-0.2,0-0.3h-0.4c0,0-1.5,0.8-1.6,0.9
					c-0.1,1.8,0,3.5,0.2,5.2c0.9,0,0.8-0.2,1.8,0c0.4,0,0.8-0.1,1.3-0.2c1.1-0.3,1.1-0.1,1.2-0.2c0,0,0.6-0.2,0.9-0.1
					c0.6,0,0.7-0.2,1.3-0.6v-0.2l0.4,0.3l0.3,0.4l0.3,0.2l0.3,0.6c1.3,0.9,1,0.8,1.3,0.9l0.2,0.2c0.3,0.1,0.8,0.4,1.9,1.5
					c0.1,0.1,0.8,0.7,0.8,1.3c0,0.6,0.3,1,0.3,1.3c-0.1,0.5-0.9,1.2-1.3,1.8c-0.5,0.1-1.4,0.5-1.4,0.6v0.2c-0.2,0-0.2,0-0.4,0.2
					l-0.2-0.1l-0.3-0.4c-0.2,0-0.3-0.2-0.8,0.1c-0.5,0.3-0.8,0.1-1-0.1c-0.8-0.8-1.1-0.6-1.4-0.8l0,0.1l-0.2,0.1
					c0,0-1.1-0.4-1.5-0.2c-0.1,0.1-0.4,0.1-0.9,0c-0.5-0.1-0.8-0.1-1,0c-0.6,0.2-0.9,0.1-0.7-0.2l0,0l-3.5,0.3l0.1,0l-1.2,0.2l0,0.1
					c-0.1-0.1-0.4,0.2-1.5,0.2c-0.1,0.1-0.2,0.1-0.3,0.1c0,0-1.1,0.2-2.9,0.5s-2.9,0.5-3.2,0.7c-0.5,0.4-0.8,0.2-1,0.4
					c0,0.2-0.2,0.2-0.3,0.2h-3.1l-0.3-0.8l-0.3-0.3c-0.3-0.8-0.2-0.5-0.4-1.4l-0.1-0.1c0-0.1-0.2-1.2-0.4-1.7l0.2-0.2
					c-0.2-0.1,0.2-0.4-0.3-0.9c0.5-0.2-0.7-1.5-0.3-1.6c0.3-0.3,0.2-0.2,0.6-0.3c0-0.3,0.1-0.5,0.3-0.6c0.2,0.2,0.5,0.2,0.8,0.2
					l0-0.2c0.4-0.1,0.2-0.1,0.5-0.1l0.6-0.5l4.9,0.1l0.3-0.2c0.2-0.3,0.4-0.5,0.6-0.8l0.6-0.6l1.3-1.4l1.1-1.1
					c0.1-0.6,0.1-0.6-0.1-0.8c-0.6,0.2-0.5,0.1-1.4,0.3c-1.1,0.3-0.8,0.6-1.3,0.1c-0.2,0-0.6,0-0.6,0l-0.2-0.3
					c-0.2,0.1-0.3,0.1-0.4,0l-0.2-0.2l-0.2-0.1l-0.2-0.2c-0.2-0.1-1-0.8-1-0.8l0-0.1l-0.5-0.4c0-0.1,0-0.3-0.8-1.4
					c-0.6-0.7-0.4-1.3-0.3-1.4l0-0.1l0.1-0.1l0.1-0.1c0.2-0.3,0.9,0.1,1.3-0.1c-0.2-0.2-0.1-0.4,0-0.6c0.9-0.3,1.5-0.3,2.4-0.8
					l0.9-0.4l0.6-0.2l2.6-0.9c0.2-1.5,0.2-2.2,0.2-2.3v-0.2c-0.3,0-0.6,0.2-0.8,0.3c0-0.2-0.6,0-1-0.4c-0.5,0-0.6-0.2-0.9-0.3v-0.1
					l-0.2-0.2l0-0.1c-0.7-0.3-0.4-0.2-0.9-0.2c0-0.3,0-0.1-0.2-0.5l-0.8-0.6c0.1-0.5-1.7-1.9-1.4-2.4h0.2l-0.1-0.3
					c0.3,0,0,0,0.5,0.1c0.1-0.3,0.1-0.3,0.2-0.4c0.3,0.3,1-0.1,1-0.1l0-0.1c0.5-0.2,1.4-0.5,2.7-0.9c1.6-0.7,4.9-2.3,5.2-2.4
					l0.2-0.3c0.2-0.1,1.5-0.6,1.6-0.5l0.1-0.1c0.2-0.2,0.5-0.3,0.8-0.4C293.1,119.9,293.7,119.9,293.9,120.1z M285.4,143.8
					c-0.4,0.2-0.5,0.3-0.7,0.3l-0.2-0.1c-0.7,0.5-0.5,0.5-0.8,0.5v0.2l-0.4,0.2v0.1c1.4-0.2,0.9,0,2.3-0.2v-0.2l-0.2-0.2l-0.1-0.2
					l0.2-0.3H285.4z M304.4,135.1l0.1-0.1c0.2,0.2,0.4,0.3,0.6,0.3c0,0.6-0.2,0.3,0.6,1.4l0.2,0.1l0.1,0.2l1.4,1.1
					c0.1,0.1,0.8,0.7,1.4,1.7c0.3,0.6,1.1,1.5,1.1,1.9s0.2,0.6-1.1,2.5c-1.5,1.1-1.9,1.2-3.1,1.2c-1.1-0.3-1.2-0.2-2.5-1l-0.2-0.5
					l-0.3-0.2c0,0.1-0.2,0.2-0.3,0.2c-0.5-0.6-0.5-0.5-0.6-0.8l-0.4-0.3c-0.2-0.3-0.3-0.3-0.3-0.6c0-0.1-0.8-1.1-1-1.5l-0.2-0.2
					c-0.8-0.9-0.7-1.4-1.1-1.9c-0.1-0.4-0.6-1.4-0.6-1.5l0.2,0.1c0.2-0.2,0.2-0.6,0.2-0.8c0.1,0.1,0.2,0,0.3-0.1l0-0.5
					c0.4-0.1,0.5,0,0.7,0l0.1-0.3c0.3,0,0.9-0.1,1.1,0l0.1-0.1l-0.1-0.1l0.2-0.1l0.1,0.2c0.3,0,0.6,0.1,0.9,0.1l0.2-0.2l0.2,0.1
					c0.2-0.4,0.2-0.1,1.2-0.6C303.5,134.7,304,135.1,304.4,135.1z"/>
			</g>
		</g>
		<g>
			<g>
				<path class="st0" d="M323.4,67.8C323.4,67.8,323.4,67.8,323.4,67.8l0.2,0.2c0,0,0.2,0.1,0.2,0.1l0,0c0,0,0.2,0,0.2,0.1l0.1,0
					c0,0,0.1,0,0.2,0.1v0c0.1,0,0.1,0.1,0.2,0.1c0.2,0.1,0.2,0.3,0.2,0.3s0,0,0.1,0.2c0,0.2-0.2,0.2-0.2,0.3c0,0,0.1,0,0.1,0
					c0,0,0,0,0,0.1c0.2,0,0.3,0,0.5,0.1c0.2,0,0.5,0.1,0.6,0.2l0,0c0,0,0.2,0.1,0.2,0.1c0,0,0.2,0.1,0.2,0.3c0,0.2-0.1,0.3-0.1,0.4
					c0,0-0.1,0-0.1,0.1v0c-0.1,0-0.2,0-0.3,0.1l-0.1,0.1l0,0c-0.2,0-0.2,0-0.2,0h-0.1l0,0c0,0-0.2,0-0.5,0c0,0-0.1,0-0.1,0v0.1
					c0,0-0.2,0-0.5,0s-0.5,0-0.5,0c0,0,0,0-0.1,0c0,0.1-0.2,0.2-0.2,0.3l0,0c0,0.1-0.1,0.2-0.2,0.3l-0.1,0v0c0,0,0,0,0,0.1
					c0,0-0.2,0.1-0.5,0.3c-0.3,0.2-0.5,0.3-0.5,0.3v0l0.6-0.2l0,0l0,0l0,0c0,0,0.1,0,0.3,0s0.3-0.1,0.3-0.2c0-0.3,0.1-0.2,0.1-0.3
					s0-0.1,0-0.1l0,0l0,0h0.1l0.1,0.1l0,0h0c0,0,0,0,0-0.1h0.1c0,0,0.1,0,0.2,0.1c0-0.1,0-0.1,0.1-0.2c0,0,0.2,0,0.2,0l0,0
					c0,0,0.2,0,0.3,0c0.1,0,0,0.1,0.2,0.2c0.1,0.1,0.3,0.3,0.3,0.3l0.1,0.1l0.2,0.2c0.1,0.1,0.2,0.1,0.2,0.1h0
					c0.1,0.1,0.2,0.3,0.2,0.3l0,0c0.2,0.3,0.2,0.1,0.3,0.5c0,0.1,0.1,0.2,0.1,0.2c0,0.1-0.1,0.2-0.2,0.3c-0.1,0.2-0.2,0.5-0.3,0.5
					c0,0-0.1,0.1-0.1,0.2c0,0.1,0,0-0.2,0.2c-0.2,0.3-0.3,0.4-0.3,0.5c0,0-0.2,0.3-0.2,0.3v-0.3l0,0l-0.1,0c0,0,0,0.1-0.1,0.3
					c0,0.1,0,0.2-0.1,0.3l-0.1,0.3c0,0.1-0.2,0.2-0.2,0.2c0,0-0.2,0-0.2,0l-0.1,0.3c0,0-0.1,0.1-0.2,0.1c0,0,0,0,0,0.1
					c-0.1,0-0.1,0-0.2,0l-0.1,0.1l0,0l-0.1,0.1c-0.1,0-0.1,0-0.1,0l0,0c-0.2,0-0.2,0-0.4,0.2c-0.3,0-0.2-0.1-0.6,0v0l0,0l0.1,0
					c0,0,0,0.2,0,0.2c0,0,0,0.2,0.2,0.2c0,0,0,0,0.1,0l0,0h0.1v0l0,0l0,0l0,0c0,0,0.1,0,0.1,0l0,0l0,0l0,0h0l0,0l0,0l0,0
					c0,0,0,0,0.2,0c0.2-0.1,0.2,0,0.2,0l0,0c0.1,0,0.2,0,0.2,0l0,0c0.1,0,0.1,0,0.2,0h0l0,0l0,0l0,0c0,0,0.1,0,0.2,0h0l0,0h0
					c0.1,0,0.3,0,0.3,0c0,0,0,0,0.1,0c0.4-0.2,0.6-0.3,0.6-0.3l0,0h0l0,0c0.3-0.1,0.5-0.1,0.6-0.1l0,0l0.1,0v0h0l0,0l0,0l0,0l0,0v0
					h0v0h0h0l0,0.1c0.1,0,0.2,0,0.3,0.1c0.1,0,0.3,0,0.5,0.1c0.3,0,0.6,0.2,0.8,0.3l0.1,0h0c0.1,0.2,0.2,0.2,0.2,0.4
					c0,0.3,0,0.4-0.1,0.5l-0.2,0.2l-0.1,0c-0.1,0-0.1,0.1-0.4,0.1c-0.2,0.1-0.6,0-0.6,0c-0.1,0-0.4-0.2-0.5-0.1
					c-0.1,0-0.3-0.1-0.3-0.1c0,0-0.1,0-0.1,0c0,0-0.1,0-0.2,0c-0.1,0-0.5,0-1.3-0.1h0c0,0,0,0-0.1,0l0,0l0,0c0,0-0.1,0-0.1,0l0,0
					h-0.1l0,0c0,0-0.1,0-0.1,0l0,0h0c0,0,0,0-0.1,0l0,0l0,0h0l0,0l0,0l0,0l0,0l0,0l0,0v0l0,0l0,0c0,0-0.1,0-0.1,0l0,0h0v0l0,0h0l0,0
					h0l0,0l0,0h-0.1l0,0c0,0,0,0-0.1,0l0,0l0,0v0h0l0,0c0,0-0.1,0-0.2,0v0h0h0l0.1,0.6l0,0v0.1v0c0,0.1,0,0.3,0,0.6
					c0.1,0.2,0,0.2,0.1,0.5l0.1,0.5c0,0.1,0,0.1,0.1,0.3c0,0.2,0.1,0.2,0.1,0.4c0-0.1,0,0.2,0,0.2l0,0.1l-0.1,0v0l0,0v0l0,0l0,0l0,0
					l0,0c0,0,0,0.1-0.1,0.1c-0.1,0-0.1,0-0.2,0.1c0,0.1-0.1,0.1-0.1,0.1v0c0,0-0.2,0.1-0.5,0.3c-0.3,0.2-0.5,0.3-0.5,0.3h-0.3
					l-0.1-0.1l-0.2-0.3h-0.1c0,0-0.1,0-0.2,0c0,0-0.1-0.2-0.2-0.3c0,0-0.1-0.1-0.1-0.2c0-0.2-0.2-0.3-0.2-0.4l-0.1-0.1h0l0,0l0,0
					c-0.1-0.1-0.2-0.1-0.2-0.1v0l0,0h0h0v0l0,0c0,0,0,0,0,0h0h0h0v0v0v-0.1v0c0,0,0.1-0.3,0.3-1c0.2-0.7,0.3-1,0.3-1l0,0h0l0,0h0
					c0,0,0.1,0,0.1,0l0,0h0h0c0,0,0,0,0,0s-0.7,0.2-2.1,0.6c-0.1,0-0.1,0-0.2,0c0,0-0.2,0.1-0.3,0.1l0,0h-0.1v0c0,0-0.1,0-0.2,0.1
					l-0.1,0l-0.6,0.3l-0.5,0.3c0,0,0,0-0.1,0c0,0,0,0,0,0h-0.2l0,0l-0.1,0l0,0c0,0,0-0.1,0-0.1c0,0-0.1,0-0.1,0c0,0,0-0.1-0.2-0.2
					c0,0,0,0-0.1,0l0,0l-0.1,0c0,0,0-0.1-0.1-0.1l0,0c0,0,0-0.1-0.1-0.1l-0.2,0l0-0.1h0c0,0,0,0,0-0.1s-0.1-0.2,0-0.2c0,0,0,0,0,0
					l0,0v-0.1l0,0c0,0,0,0,0-0.1l0,0h0v0h0.1v0l-0.1-0.1c-0.1-0.1-0.1,0,0-0.2c0,0,0.2,0,0.5,0s0.5,0,0.5,0c0.1,0,0.2-0.1,0.4-0.1
					c0.2,0,0.3-0.1,0.6-0.1c0.3-0.1,0.3-0.1,0.4-0.1c0.1,0,0.5-0.1,0.5-0.1c0.1,0,0.1,0,0.2,0c0.2,0,0.2-0.1,0.3-0.1l0,0
					c0.1,0,0,0,0.3-0.1c0.3-0.1,0.1,0,0.3,0l0,0h0l0,0c0.4-0.1,0.4-0.1,0.5-0.1c0.1,0,0.5-0.1,0.5-0.1c0.1,0,0.3-0.1,0.4-0.1
					c0.1,0,0,0,0.2,0c0-0.1,0-0.3,0-0.4c0,0,0-0.2,0-0.2c0,0,0,0-0.1,0l-0.4,0.2c-0.3,0.2-0.4,0.2-0.5,0.2h0v-0.1h0
					c-0.1,0-0.3,0-0.3,0c0,0-0.1-0.1-0.1-0.1l-0.1,0c0,0,0-0.1,0-0.2l-0.1,0c0,0,0-0.1,0-0.1l-0.1,0v0c0,0-0.1,0-0.1-0.1v0
					c0,0-0.1,0-0.1-0.1l0-0.2h0c-0.1,0-0.1-0.1,0-0.2l-0.1-0.1l0-0.1c0,0-0.2-0.5-0.4-1.2s-0.4-1.3-0.4-1.5c0-0.2,0-0.3,0-0.3
					c0,0,0.1,0,0.1,0c0,0,0-0.1,0-0.1c0,0,0.1-0.1,0.3,0c0.1,0,0.2,0,0.2,0.1c0,0,0.2,0,0.5,0c0.3,0,0.5,0,0.5-0.1
					c0.1,0,0.2,0,0.3,0l0,0c0,0,0,0-0.1,0c0,0-0.2-0.2-0.1-0.2l0,0c-0.1-0.1,0-0.2-0.2-0.3c-0.1-0.2-0.1-0.2-0.2-0.3
					c-0.1,0-0.1,0-0.1,0l0,0c0,0-0.3,0-0.5,0.1c-0.2,0-0.4,0-0.5,0l-0.1-0.1c-0.1,0-0.2-0.1-0.3-0.2v0c-0.1,0,0,0-0.2-0.1l0,0
					l-0.1-0.1c0,0,0,0-0.1-0.1c-0.2-0.1-0.3-0.2-0.4-0.2c-0.1-0.1,0-0.2,0-0.2v-0.1v0c0.1-0.1,0.1-0.1,0.3-0.1l0,0
					c0.2,0,0.6-0.1,0.6-0.1c0.1,0,0.2,0,0.5-0.1c0.3,0,0.1-0.1,0.3-0.1c0.3-0.1,0.3-0.1,0.5-0.2h0c-0.1-0.2,0-0.1-0.1-0.2
					c0-0.2-0.1-0.3-0.2-0.4l0,0v0l-0.1-0.1l0,0l-0.1,0l0-0.1l0-0.1l0,0v0l-0.1-0.2l0,0h0V69l0.1,0c0,0,0,0,0-0.1c0-0.1,0.3,0,0.3,0
					c0.2-0.2,0.5,0,0.6,0.1c0.2,0,0.3,0,0.4,0c0.1,0,0.2,0,0.3,0.1c0.1,0,0.1,0,0.2,0l0.1,0.1l0.2,0.1l0,0h0c0-0.1,0.1,0.2,0.2,0.3
					c0,0.2,0,0.3,0,0.3c0,0,0.2,0,0.6-0.1c0.4-0.1,0.6-0.1,0.6-0.1c0,0,0.1,0,0.2,0l0,0l0.2-0.1c0,0,0,0,0.2-0.4
					c0-0.1,0.1-0.3,0.1-0.5c0-0.2,0-0.4,0-0.4c0-0.1,0-0.2,0-0.2l0,0c0,0,0,0,0-0.1c0.1,0,0.2,0,0.3,0l0.1-0.1
					C323.2,67.8,323.2,67.8,323.4,67.8L323.4,67.8z M323.1,72.2c-0.2,0-0.1,0-0.5,0.1c-0.3,0.1-0.5,0.1-0.6,0.2l0,0
					c-0.1,0-0.1,0-0.2,0.1c-0.1,0.1-0.3,0.1-0.5,0.2c-0.2,0.1-0.5,0.2-0.5,0.2c0,0,0.1,0,0.1,0l0,0H321c0,0-0.1,0-0.2,0.1
					c-0.2,0.1-0.2,0-0.3,0.1l-0.8,0.5v0l0,0v0c0,0,0,0,0.2,0.4c0.1,0,0.5-0.2,0.5-0.2l0,0c0.1,0,0.4-0.2,0.5-0.2
					c0.2,0,0.3-0.1,0.5-0.2c0,0,0,0,0-0.1c0,0,0,0,0.1,0v0h0.1l0.1,0l0.1,0l0.1-0.1h0v0l0.1,0l0,0c0,0,0.1,0.1,0.2,0.1
					c0.1,0,0.1,0,0.1,0l0,0c0,0,0.3,0,0.5,0c0,0.1,0.2-0.2,0.2-0.4c0.1-0.1,0.1-0.2,0.1-0.4C323.2,72.2,323.1,72.2,323.1,72.2
					L323.1,72.2L323.1,72.2z M322.1,74.4L322.1,74.4L322.1,74.4c0,0-0.2,0-0.2,0l0,0c0,0-0.2,0-0.2,0l0,0c0,0-0.1,0-0.2,0.1
					c0,0-0.1,0-0.1,0s0,0-0.1,0c0,0-0.3,0.2-0.8,0.4c-0.1,0.1-0.1,0.1-0.2,0.1c0,0,0.1,0.4,0.1,0.4c0.1,0,0.1,0,0.2,0l0.2-0.1
					c0.1,0,0.5-0.2,1.1-0.4l0.1-0.2l0,0l0,0c0-0.1,0-0.1,0.1-0.2c-0.1-0.1-0.1,0-0.1-0.1l0.1,0c0,0,0-0.1,0.1-0.2
					C322.3,74.4,322.2,74.4,322.1,74.4z M322.1,70.9c0,0-0.5,0.1-1,0.2c0,0,0,0.1,0,0.2c0,0,0,0.2,0.2,0.3c0.1,0.1,0.1,0.2,0.1,0.3
					c0,0.1,0,0.2,0,0.2c0.1,0,0.2,0,0.3,0c0.2-0.3,0.3-0.5,0.4-0.6C322.1,71.3,322.1,71.1,322.1,70.9
					C322.1,70.9,322.1,70.9,322.1,70.9z"/>
				<path class="st0" d="M316.5,87.8c0.1,0,0.3,0.1,0.3,0.1c0.1,0,0.4,0,0.4,0l0,0c0,0.1,0.2,0,0.4,0.2l0.2,0.2
					c0.2,0.1,0.2,0.1,0.4,0.2c-0.1,0-0.1,0-0.2,0.1c0,0,0,0,0,0.2s0,0.1,0,0.2l0,0.1c0,0,0.1,0.1,0.1,0.2h0l0,0h0v0l0,0
					c0,0-0.1,0.1-0.1,0.2c0,0,0,0-0.2,0.2c-0.2,0-0.3,0.2-0.6,0.2v0l0,0h-0.1v0c0,0,0,0,0,0c0,0-0.2,0-0.2,0
					c-0.2-0.1-0.2-0.1-0.3-0.1l0,0h0c0,0,0,0-0.1-0.1c-0.1,0,0,0-0.4-0.2c-0.2-0.1-0.2-0.1-0.3-0.1c-0.1,0-0.1-0.1-0.3-0.2
					c-0.1-0.1-0.1-0.1-0.1-0.2l0,0c-0.2,0-0.2-0.4,0-0.4c0,0-0.1-0.1-0.1-0.1l-0.1,0v-0.1l0,0l0,0l0,0l0,0l0,0v-0.2h0l0,0l0,0l0,0v0
					c0,0,0.1,0,0.1,0l0,0l0,0c0.1,0,0.2-0.1,0.3-0.2c0,0,0.2,0,0.2-0.1C316.3,87.8,316.4,87.8,316.5,87.8z M321.9,83.5L321.9,83.5
					L321.9,83.5l0.1,0v0c0.2,0.1,0.3,0.2,0.6,0.2l0.1,0.1v0.1c0.2,0.1,0.1,0.1,0.2,0.2l0.1,0.1l0,0c0,0,0,0.1,0.1,0.2
					c0.1,0.1,0.2,0.1,0.1,0.2c-0.1,0.2,0,0.3,0,0.4l0,0l0,0h0l0,0l0,0v0v0l0,0l0,0l0,0c0,0,0,0,0,0l0,0c0,0,0,0,0,0l0,0l0,0l0,0l0,0
					l0,0l0,0l0,0l0,0v0l0,0h0l0,0c0,0,0.1,0,0.1,0v0l0,0l0,0l0,0l0,0c0,0,0.1,0,0.1,0c0,0,0,0,0.2-0.1l0,0l0,0l0,0l0,0l0,0l0,0l0,0
					l0,0h0l0,0l0,0c0,0,0.1,0,0.1,0v0h0l0,0h0l0,0l0,0h0c0,0,0-0.1,0-0.1c0,0,0.1,0,0.1,0v0l0,0l0,0v0h0c0-0.1,0-0.1,0.1-0.2h0.1
					l0,0l0,0l0.1,0.1c-0.1,0,0.2,0.1,0.3,0.2l0.1,0.1h0.1v-0.1h0c0,0,0,0,0.1,0.2c0.2,0.2,0.3,0.1,0.3,0.2c0.1,0.2,0,0.2,0.2,0.2
					l0,0c0,0.1,0.4,0.3,0.3,0.6c0,0.1,0.1,0.2,0,0.3h-0.1c0,0,0,0,0,0c0.1,0,0.1,0,0.2,0l0,0c0,0,0,0,0.1,0l0,0h0l0.1-0.1
					c0.1,0,0.1,0,0.2,0c0,0,0,0.2,0.1,0.2l0.1,0l0,0c0,0,0.2,0.1,0.2,0.1h0c0,0,0,0,0.1,0l0.1,0.1c0.1,0,0.2,0,0.3,0.1l0.1,0.1h0
					l0,0h0l0,0l0,0c0,0,0,0.2,0,0.2l0,0l0,0l0,0v0h0c0,0,0.1,0.1,0.1,0.1c0,0,0-0.1,0-0.1h0h0h0c0.2,0,0,0.2,0,0.2
					c0,0-0.1,0.2-0.2,0.2c-0.1,0-0.2,0.1-0.2,0.1l0,0l0,0c0,0,0,0,0,0.1v0c0,0-0.1,0-0.2,0l0,0h0l0,0c0,0-0.5,0.2-0.5,0.1l0,0
					c-0.1,0,0-0.1-0.2-0.1h-0.3l0,0c-0.2,0-0.4,0-0.5,0c0,0-0.2,0-0.2,0.1c0,0.1-0.1,0.2-0.1,0.3c0,0,0,0.1-0.1,0.4
					c-0.1,0.3-0.1,0.3-0.1,0.4c0,0.1,0,0.1-0.2,0.5c-0.1,0.3-0.2,0.2-0.2,0.3c0,0-0.1,0.1-0.2,0.1c0,0,0,0.1,0,0.2l0,0h0l0,0l0,0
					c-0.2,0,0,0-0.3,0c0,0,0,0.1,0,0.1c0,0-0.2,0-0.3-0.1c-0.1,0-0.4,0-0.6,0c0,0,0,0.3,0,0.4c0,0,0,0,0.1,0c0.1,0,0.2,0,0.2,0l0,0
					c0,0,0,0,0.1,0v0c0,0,0.1,0,0.2,0.1v0.1v0.1c0.1,0,0.2,0.1,0.3,0.1v0.1h0c0,0,0,0.1,0,0.1c0,0,0,0,0,0l0,0l0,0.1
					c-0.1,0.1-0.2,0.1-0.2,0.1c0,0,0,0.1,0,0.1l0.1,0v0l0,0c-0.1,0-0.3,0-0.4,0l0,0c0,0-0.3,0.1-0.3,0.1c0,0,0,0,0,0.1l0,0v0
					c0-0.1,0-0.1,0-0.1c0,0,0,0-0.1,0c0,0.2,0,0.4,0,0.3c0.2,0,0.2,0,0.2,0c0,0,0.3,0,0.4-0.1c0.2,0,0.4,0,0.6-0.1v-0.2h0
					c0-0.1,0-0.1,0.1-0.2c0,0,0.1,0,0.1,0l0,0h0.1c0.1,0.1,0.2,0.2,0.2,0.2l0,0l0,0c0,0,0,0,0.1,0c0,0,0,0,0.1,0l0,0h0l0,0
					c0,0.1,0.2,0.1,0.3,0.1c0.1,0,0.2,0,0.2,0l0,0c0,0,0,0,0.1,0l0,0l0.2,0.1c0.1,0,0.1,0,0,0.1h0c0,0-0.1,0.1,0,0.1
					c0,0,0.3,0.1,0.3,0.2l0,0.1l0,0c0,0-0.1,0.2-0.1,0.3c0,0.1,0,0.1,0,0.2l-0.1,0.1h0l0,0l0,0l0,0l0,0c0,0.1-0.1,0.2-0.1,0.2l0,0
					l0,0l-0.1-0.1v0v0c0,0-0.2,0.1-0.2,0.1l0,0c0,0.1-0.3,0.1-0.3,0.1c0,0-0.2,0-0.4-0.1c0,0,0,0-0.1,0c0,0,0,0-0.1,0
					c0,0-0.1,0-0.2,0c-0.3,0-0.4,0-0.4,0c-0.2,0-0.3,0-0.3,0c0,0-0.2,0-0.2,0c0,0,0,0.2,0,0.4l0,0l0,0l0,0l0,0c0-0.1,0-0.2,0-0.2
					c0,0,0,0,0,0s-0.1,0-0.1,0.4c0,0.5,0,0.8,0,0.8c0,0.2,0,0.5-0.1,0.7c0,0.1,0,0.1-0.1,0.2c0,0,0,0.1,0,0.2c0,0.2,0.1,0.1,0,0.2
					l0,0c0,0-0.1-0.1,0-0.1c0-0.1-0.1,0.2,0,0.3l0,0c0,0,0,0.1,0,0.1l-0.1-0.1l-0.1,0.2c0,0-0.1,0.1-0.1,0c0,0,0,0,0-0.1l0,0l0,0
					c0,0,0,0.2,0,0.2l0,0c0,0.2,0,0.2-0.2,0.4h-0.1c0,0,0,0-0.1-0.2h0l-0.1-0.1c-0.1,0,0,0-0.1,0c0,0,0,0.1,0,0.2l0-0.2h-0.1
					l-0.1-0.1c0,0-0.1,0.2-0.1,0.2c0-0.2,0-0.2,0-0.3c0,0-0.1,0-0.1,0v0c0,0-0.1,0-0.1,0v-0.1l0,0c-0.1-0.1-0.1-0.3-0.1-0.3l0,0
					c-0.1-0.1-0.1-0.1-0.1-0.1l0,0c0,0,0-0.1,0-0.1h0c0,0,0-0.1,0-0.2c0,0,0,0,0-0.3c0-0.3,0-0.1,0-0.4c0-0.2,0-0.2,0-0.6
					c0-0.4,0-0.4,0-0.4c0,0,0,0,0-0.2c0-0.2,0-0.1,0-0.3c0,0,0,0-0.1,0l0,0h-0.1l0,0c-0.2,0.1-0.4,0.1-0.6,0.2l0,0
					c-0.2,0-0.2,0-0.3,0c-0.1,0-0.4,0.1-0.3,0.1l0,0l0,0c-0.1,0-0.3,0-0.4-0.1c0-0.1-0.1,0-0.2-0.1c-0.1-0.1-0.2-0.2-0.2-0.2
					c0,0-0.1-0.1,0-0.2c0,0,0,0,0.1,0l0,0v0c-0.1,0-0.1,0-0.1,0l0,0h0c0,0,0,0,0-0.1l0,0l0,0v0l0,0h0c0,0,0,0,0.1,0l0,0h0l0,0v0
					c0,0,0,0,0-0.1h0h0c0,0-0.1,0,0.4-0.2c0.4-0.1,0.3-0.1,0.3-0.1l0,0c0,0,0.1,0,0.1,0h0v0l0,0h0v0c0,0,0,0,0,0h0v0
					c0,0,0.1,0,0.1,0c0.1,0,0.2-0.1,0.2,0c0,0,0.1,0,0.2,0h0v0c0,0,0.5-0.2,0.5-0.1l0,0c0,0,0.1,0,0.1,0c0-0.3,0-0.2,0-0.3
					c0,0,0,0-0.1,0c0,0-0.3,0.1-0.4,0.1c-0.1-0.1-0.2,0.1-0.2,0c0,0-0.3-0.1-0.3-0.2v0l0,0l0,0l-0.2-0.1c-0.1-0.1,0-0.1-0.1-0.2
					c0.1,0,0.1,0,0.2,0l0,0l0-0.1c0,0,0,0,0,0c0,0,0,0,0,0l0,0v0c0,0,0,0,0,0l0,0v0l0,0c0,0,0.1,0,0.1,0v-0.1l0,0v-0.1
					c0,0,0.5-0.1,0.4-0.1c0,0,0.2-0.1,0.2,0v0c0.1,0,0.2-0.1,0.2-0.1c0.1,0,0.3-0.1,0.3-0.1l0-0.5c0,0,0,0-0.1,0v0c0,0,0,0-0.1,0
					c-0.2,0.1-0.2,0.1-0.4,0.2h0c0,0,0,0-0.1,0l0,0v0h0c0,0-0.1,0-0.2,0.1c0,0,0,0.1,0,0.1l0,0l0,0.1c0,0,0,0-0.2,0
					c-0.1,0,0,0-0.3-0.1l-0.1-0.1l-0.1,0v0l-0.1,0l0-0.1l0,0v0l-0.1,0v0l0,0v0h0l0,0l0.1,0l0,0l0,0l0,0h0v0h0v0c0,0,0,0,0,0
					c0,0,0,0,0-0.1v-0.1c0,0,0.1,0,0.2,0h0h0v0l0,0h0l0,0l0,0l0,0v0c0,0,0,0,0.1,0c0.1,0,0.4,0,0.5-0.1l0.2,0c0,0,0.2-0.1,0.5-0.1
					c0.2-0.1,0.2,0,0.3-0.1c0.1-0.1,0.2,0,0.4-0.1V89c0,0,0-0.3,0-0.7c0,0,0,0-0.1,0l-0.3,0.1l-0.3,0.1l-0.2,0.1l-0.4,0.1
					c0,0-0.1,0-0.1,0c0,0,0,0-0.4,0.2c-0.2,0.1-0.2,0.1-0.4,0.2c0,0,0,0,0,0.1l0,0l-0.2,0l0,0c0,0,0,0-0.2-0.1c0,0.1,0,0.1-0.2,0.2
					c-0.1,0.1,0,0.1-0.2,0.3l0,0l0,0l0,0l0,0l0,0l0,0l0,0c0,0,0,0,0,0l0,0c0,0.1-0.1,0.2-0.1,0.2l0,0h0l0,0l0,0c0,0,0,0.1,0,0.1
					l-0.1,0.2l0,0c0,0,0,0.1,0,0.1l0,0c0,0.1-0.1,0.3-0.1,0.3l0,0l0,0.1c0,0,0,0.1,0,0.2c0,0-0.2,0.3-0.1,0.4c0,0.1-0.1,0.3-0.1,0.3
					c0,0-0.1,0.2,0,0.2l0,0h0l0-0.2c0,0,0,0.1,0,0.2l0,0l0,0v0l0,0c0,0.1,0,0.1,0,0.3c0,0.1,0,0.2,0,0.3l0,0c0,0-0.1,0.2-0.1,0.2
					l0.1,0l0.1-0.1v0c0,0-0.1,0.2-0.1,0.3c0,0.1,0,0.1-0.1,0.2l0,0l0,0l0,0v0h0l0.1-0.2l0,0c0,0-0.1,0.2-0.1,0.2l-0.1,0.1l0,0l0,0
					c0.1,0,0,0.1-0.1,0.2c0,0,0,0,0,0.1c-0.1,0.2,0,0.1-0.1,0.2c-0.1,0.1,0,0.3-0.1,0.3c-0.1,0.1-0.2,0.3-0.2,0.3c0,0,0,0-0.1,0
					c0-0.1-0.2,0-0.3,0c-0.1,0-0.2-0.1-0.2-0.1l0,0c-0.1-0.1-0.1-0.1-0.2-0.1l0,0l-0.1-0.1l0-0.1c0,0,0,0-0.2-0.1v0
					c0-0.1-0.2,0-0.3,0c0,0-0.2,0-0.2,0v-0.1c0,0-0.1,0-0.1-0.1c-0.1-0.2-0.1-0.2,0-0.4c-0.2,0-0.1-0.4,0-0.6c0-0.1,0-0.3,0-0.3
					l0-0.1h0.1l0,0c0.1-0.1,0.2,0,0.2,0l0,0l0,0c0,0,0-0.1,0-0.1c0,0,0,0,0.1,0l0,0.1h0l0.1,0.1c0,0,0,0,0.1,0l0.2-0.2l0,0l0,0
					c0,0,0,0,0,0c0,0,0.1-0.1,0.2-0.2h0c0,0,0,0,0.1-0.1c0.1-0.2,0.1-0.2,0.1-0.2l0,0v0l0,0c0.1-0.2,0.1-0.2,0.2-0.2
					c0.1-0.2,0.2-0.2,0.2-0.3l0,0.1l0,0l0,0l0,0c0,0,0-0.1,0.1-0.1l0,0c0,0,0-0.1,0-0.1l0,0c0,0,0.2-0.4,0.3-0.4
					c0.1-0.2,0-0.1,0.1-0.2l0,0l0-0.1c0,0,0,0,0-0.1l0,0l0.1-0.1l0,0l0,0l0,0l0,0l0,0v0l0,0c0,0,0.1-0.1,0.1-0.2l0,0h0
					c0,0,0,0,0.1-0.1l0,0l0,0l0,0h0l0,0l0,0l0,0c0,0,0-0.1,0-0.1l0,0l0,0l0,0c0,0,0,0.1-0.1,0.2l0,0l0,0.1l0,0l-0.1,0.1l0,0v0l0,0
					v0.1l0,0v0c-0.1,0.1-0.1,0.1-0.1,0.2l0,0h0l0.1-0.2l0,0c0,0,0,0,0.1-0.1c0.1-0.1,0.3-0.5,0.3-0.5l0,0c0.1-0.1,0.2-0.2,0.2-0.2
					l0,0c0,0,0.2-0.3,0.2-0.3l-0.1,0l0,0l-0.2-0.1c0,0,0,0,0-0.1c0-0.1-0.1,0-0.1-0.1v0c-0.1,0-0.1-0.1-0.2-0.1c0,0,0-0.1,0-0.2l0,0
					l0,0l0-0.1l0,0l0,0h0h0c0,0,0,0,0,0l0,0h0l0,0c0.1,0,0,0,0.1,0l0,0h0v0H318l0,0l0,0v0c0,0,0.1,0,0.2,0c-0.1,0.1,0.3-0.2,0.4-0.2
					c0.1,0,0.1,0,0.2,0l0.2-0.1c0,0,0.2-0.1,0.3-0.1c0.1,0,0.1-0.1,0.2-0.1c0.1,0,0.1,0,0.1,0s0.2-0.1,0.2-0.1
					c0.3-0.1,0.4-0.1,0.5-0.2c0,0,0.3-0.1,0.3,0c0,0,0.2,0,0.3-0.1c0.1-0.1,0.2-0.1,0.3-0.1c0,0,0,0,0-0.1l0,0c0-0.3,0-0.4,0-0.4
					l-0.2,0.1l-0.1,0.1c-0.1,0.1-0.1,0.1-0.2,0.1l0,0l0,0l0,0l0,0h0v0c0,0-0.3,0.1-0.2,0.2h0c0,0,0,0.1,0,0.2c0,0-0.1,0-0.1,0
					c0,0-0.1,0-0.2,0l0,0l-0.1,0.1h-0.1l0,0c-0.1-0.1,0,0-0.2-0.1l0,0l-0.1,0l-0.1-0.2l-0.1,0v0l-0.1-0.1c0,0,0,0,0-0.1l-0.2-0.1
					c-0.1-0.1-0.1-0.1,0-0.2c0,0,0-0.1,0-0.2h0.1c0-0.1,0-0.1,0-0.1c0,0,0.1,0,0.2,0c-0.1,0-0.1-0.1-0.1-0.2v0l0,0l0,0l0,0l0,0
					c0,0,0,0,0,0c0,0,0,0,0.1,0c0,0,0,0,0-0.1c0,0,0,0,0.1,0c0.2,0,0.3-0.1,0.4,0c0.1,0,0.1,0,0.2,0c0,0,0,0,0.1,0
					c0.2,0,0.3-0.1,0.3-0.1l0,0c0,0,0.1,0,0.2,0l0,0l0,0h0l0,0l0,0l0,0l0,0h0l0,0l0,0l0,0h0l0,0v0l0.1,0v0h0.1h-0.1l0,0
					c0.2-0.1,0.2,0,0.2-0.1v0h0l0,0h0v0v0l0,0l0,0v0h0l0,0h0l0,0h0c0,0,0,0,0,0c0,0,0-0.2,0-0.3c0-0.3-0.2-0.6-0.2-0.6l-0.2-0.2l0,0
					l0,0c0,0-0.1-0.2-0.1-0.2c0-0.1,0.2-0.1,0.2-0.1c0,0,0,0-0.1-0.1l-0.1,0c0,0,0,0,0,0l0,0v0h0h0v0c0,0,0.2,0,0.2,0l-0.1-0.1
					c0,0,0,0,0-0.1l0,0l0,0c0,0,0-0.1,0-0.1c0.1,0,0.2,0,0.4-0.1C321.8,83.4,321.8,83.4,321.9,83.5z M317.2,84.3L317.2,84.3
					c0.3,0.2,0.3,0.2,0.4,0.2l0,0.1c0.1,0,0.3,0,0.4,0.1c0,0,0.2,0.1,0.3,0.2c0.1,0,0.3,0.1,0.3,0.1c0.1,0,0.2,0.1,0.3,0.2
					c0.1,0.2,0.1,0.1,0.1,0.2l0.1,0c0.1,0.2,0.2,0.1,0.2,0.3v0.3c0,0-0.1,0.2-0.1,0.3c-0.1,0.1,0,0.1-0.2,0.3
					c-0.1,0.1-0.1,0-0.2,0.1c-0.2,0-0.3,0-0.3,0c-0.2,0.1-0.3,0-0.4,0.1l0,0c0,0-0.2,0-0.2,0l-0.1-0.1l0,0h0
					c-0.2-0.2-0.1-0.1-0.2-0.2c0,0,0,0-0.1-0.2l-0.1-0.1l-0.1-0.1c0,0-0.2-0.1-0.2,0c-0.2,0-0.2,0.2-0.3,0.1l-0.1,0.1
					c0-0.1-0.1,0-0.3,0l0,0l0,0c0,0,0,0,0,0h0c0,0,0,0,0-0.1c0-0.1,0.2-0.3,0.2-0.5c0.1-0.2,0.1-0.2,0.1-0.2l0,0
					c-0.2-0.1-0.1-0.1-0.2-0.1c-0.1-0.1-0.1-0.2-0.1-0.3c0-0.2,0.1-0.2,0.2-0.5l0,0l0.1-0.1l0,0l0.1-0.1h0c0,0,0-0.1,0.1-0.1l0,0
					l0.1-0.1c0.1,0,0.1,0,0.2,0C317.1,84.2,317.1,84.3,317.2,84.3z M317.9,94.1L317.9,94.1L317.9,94.1c-0.1,0,0,0,0-0.2
					C317.9,94,317.9,94.1,317.9,94.1z M318.5,91L318.5,91L318.5,91L318.5,91L318.5,91c0,0,0,0.1,0,0.1l0,0l0,0l0,0
					c0,0,0.1-0.2,0.2-0.3C318.5,90.9,318.5,91,318.5,91z M318.7,89.2L318.7,89.2L318.7,89.2c0,0.1-0.1,0.2-0.1,0.2l0,0
					c0,0,0,0-0.1,0.1c0,0,0,0,0,0l0,0l0,0l0,0v0v0h0l0,0l0,0v0l0,0h0c0,0,0,0,0-0.1v0l0-0.1l0,0l0,0c0,0,0,0,0,0h0
					C318.6,89.2,318.6,89.2,318.7,89.2L318.7,89.2z M324.1,85.1L324.1,85.1l-0.1,0.1v0.1c0,0-0.2,0-0.2,0.1l0,0l0,0l0,0
					c0,0,0,0-0.1,0l0,0c0,0-0.1,0-0.5,0.2l0,0l-0.1,0.1v0.1l0,0c0,0.1-0.1,0.1,0,0.8c0,0,0.1,0,0.1,0c0,0,0-0.1,0-0.1h0v0.1
					c0.2,0,0.5-0.1,0.5-0.1h0c0,0,0.1,0,0.2-0.1c0,0,0-0.1,0-0.2c0,0,0.1-0.4,0.1-0.5c0-0.1,0,0.1,0.1-0.3
					C324.2,85.2,324.2,85.2,324.1,85.1L324.1,85.1z M323,85.9c0,0,0,0,0,0.1l-0.1-0.3C323.1,85.9,323,85.9,323,85.9z M323.1,87.9
					C323.1,87.9,323.1,87.9,323.1,87.9c0,0,0,0.4,0,0.7c0,0,0.1,0,0.1,0l0,0l0,0c0.1,0,0.2-0.1,0.2-0.1l-0.1-0.3l0,0l0,0
					c0-0.1,0-0.2,0-0.2h0c0,0,0-0.2-0.1-0.2C323.3,87.8,323.3,87.8,323.1,87.9z M324.1,84.9c0.1,0-0.3,0-0.2,0l0,0l0,0l0,0v0h0l0,0
					c0.1,0,0.1,0,0.2,0l0,0l0,0H324.1L324.1,84.9z M325.1,89.2c-0.1,0.3-0.1,0.2-0.1,0.2c0.2-0.3,0.2-0.5,0.3-0.8
					C325.2,88.6,325.2,88.8,325.1,89.2z M326.1,91.5c0.1,0,0,0.1,0,0.2C326.2,91.6,326.1,91.5,326.1,91.5L326.1,91.5z"/>
				<path class="st0" d="M320.8,98.8c0,0,0.1,0,0.1,0l0.2,0.3c0.3,0.2,0.1,0,0.6,0.3c0.2,0.3,0.3,0.3,0.4,0.5
					c0.1,0.2,0.1,0.3,0.1,0.4c0,0.1-0.2,0.2-0.2,0.3c-0.1,0.1-0.1,0.2-0.1,0.3l0,0l0.1,0.1l0,0c0-0.1,0-0.1,0-0.2c0.2,0,0.1,0,0.2,0
					l0,0c0,0,0,0.1,0.1,0.1c0,0,0.3,0,0.2,0l0,0l0,0c0.1,0,0,0,0.2,0.1c0.1,0,0.3,0.1,0.4,0.1c0.2,0,0.1,0.1,0.2,0.1l0.1,0.1
					c0.2,0.1,0.1,0.1,0.2,0.2c0.1,0.2,0.1,0.4-0.1,0.5l-0.2,0.2v0c-0.4,0.1-0.3,0.1-0.5,0.1l-0.1,0.2c0,0-0.1,0-0.1,0
					c0,0-0.1,0-0.9,0.2l-0.1,0.2l0.2,0.2l0.9,0.9l0.2,0.2c0.8,0.7,1.4,0.9,1.7,1.1c0.2,0.1,0.3,0.2,0.5,0.3c0.3,0.2,0.2,0.2,0.3,0.2
					l0.1,0.1l0.3,0.2l0.1,0.1c0.2,0.2,0.7,0.5,1,0.6c0.3,0.2,0.5,0.3,0.6,0.3c0.2,0,0.2,0.1,0.3,0.1l0,0l0,0l0,0.1c0,0,0,0.1,0,0.2
					c-0.1,0-0.2,0-0.3,0l0.1,0.1l0.1,0.1c-0.5-0.1-0.1,0-1,0l0,0h-0.2h0.1c-0.2,0-0.1,0-0.2,0l-0.1,0.2c-0.2,0.1-0.2,0.2-0.4,0.2
					c-0.3-0.1-0.4,0.3-0.7,0.2c-0.2-0.1-0.4-0.1-0.6-0.2c-0.2-0.1-0.2-0.2-0.3-0.2c-0.1,0-0.3-0.2-0.4-0.3c-0.1-0.1-0.2-0.1-0.3-0.2
					l0,0.1l0,0v0l-0.3,0.1c0,0,0,0.1,0,0.1l0,0.1c-0.3,0-0.5,0.1-0.5,0.2c-0.1,0.1-0.2,0.1-0.5,0.2c-0.5,0.1-0.5,0.1-0.6,0.2
					c-0.1,1.3,0,1.3,0,1.5c0,0.1,0,0.1,0,0.1l0,0c0,0.2,0,0.3,0.1,0.5c0-0.1,0-0.1,0-0.1c0,0,0,0,0-0.2c0,0,0.1,0.2,0,0.3
					c0,0-0.1,0.1-0.1,0.2c0,0.2,0,0.2,0,0.2c0-0.1,0.1-0.2,0.1-0.2l0,0c0,0,0,0,0-0.1l0,0l0.1-0.2c0,0.2-0.1,0.5-0.2,0.7l-0.2,0.1
					c0,0.1,0,0.1-0.1,0.2c0,0.1-0.1,0.1-0.2,0.1c0-0.1,0-0.1,0-0.2c-0.1,0-0.3-0.1-0.3,0c0,0-0.1-0.1-0.2-0.1l0,0
					c0,0-0.1-0.1-0.2-0.1c-0.1-0.1-0.1-0.1-0.1-0.2c0-0.1-0.2-0.3-0.2-0.3l0,0c0-0.1,0-0.1-0.1-0.2l0,0l0,0h0l0,0l0,0l0,0l0,0
					c0,0,0,0-0.1,0l0,0h0v0h0l0,0l0,0h-0.1l0.1-0.1l-0.1,0l0-0.1l0.1,0v0l-0.1,0h0h0v0c0.2-0.1,0.2-0.2,0.3-0.2l0-0.1
					c-0.1,0-0.1,0-0.2-0.1l0,0c0,0,0,0,0-0.1l0.2,0l-0.1,0v0l0.1,0v0h0l0,0h0h0h0c0.1,0,0,0,0.1,0c0-0.1,0.1,0,0.1-0.3
					c0-0.1-0.1,0.1-0.3,0c-0.3,0-0.3-0.1-0.4-0.1v0c0,0-0.1-0.1-0.3-0.2h0l-0.2-0.2c-0.2-0.2-0.2-0.2-0.3-0.2v0l-0.1,0l0,0l0,0
					c-0.1-0.1-0.1-0.1-0.3-0.2c-0.2-0.1-0.2-0.1-0.3-0.2c0-0.1,0-0.1,0-0.1c0,0,0.1,0,0.1-0.1c0,0,0,0,0-0.1l-0.3,0.3l-0.2,0.1
					c0,0-0.2,0.2-0.6,0.5l0.2-0.2l0,0c-0.1,0.1-0.1,0-0.3,0.2c-0.3,0.2-0.4,0.1-0.6,0.3v0c0,0,0,0-0.1,0c-0.2,0.2-0.2,0.1-0.4,0.2
					l0,0c0-0.1,0.1-0.2,0.1-0.2l-0.1,0l0,0c0-0.1,0-0.1,0.1-0.2h0v0l0.2-0.2l0.1-0.1h0l0,0l0.2-0.1l1.4-1.5c0.5-0.5,0.8-1,1.3-1.6
					c0.8-1.1,0.7-1,0.7-1.1c-0.5,0.2-0.5,0.2-0.5,0.3c-0.1,0-0.2,0.1-0.2,0.2c0,0-0.3,0-0.4,0l-0.3-0.2l-0.1-0.1
					c-0.2-0.2-0.2-0.2-0.3-0.2l-0.3-0.2l-0.1,0v0c-0.1,0-0.2-0.1-0.3-0.2v-0.1c0.1-0.1,0.1-0.2,0.1-0.3c0,0,0.1-0.1,0.2-0.1v0
					c0.2-0.1,0.1,0,0.3,0c0.2,0,0.7-0.3,1.1-0.4c0.5-0.2,0.4-0.1,0.4-0.1v0h0.1l0-0.1c0.1,0,0.1,0,0.1,0l0,0h0.1l0-0.1h0.1l-0.1,0
					c0.1,0,0.4-0.2,0.4-0.2c0-0.2,0,0.3,0-1.4c0-0.4,0-0.6-0.1-0.7c0,0-0.1-0.1-0.1-0.2c0-0.1-0.1-0.1-0.1-0.2c0,0,0-0.1,0.1-0.1
					c0,0,0-0.1,0-0.2c0.1,0,0.1,0,0.2,0v-0.1c0,0,0.2,0,0.3,0l0.1-0.1L320.8,98.8z M320.3,104.5c-0.3,0.5-0.5,0.8-0.7,1
					c-0.2,0.2-0.4,0.5-0.7,0.8c-0.3,0.3-0.4,0.5-0.5,0.5l1.8-0.5v0c0,0,0-0.3,0-0.8v0l0,0C320.3,105.4,320.3,105.1,320.3,104.5
					L320.3,104.5z M321.4,104.7l0,0.7c0,0.3,0,0.4,0,0.4c0.1,0,0.2-0.1,0.4-0.2l0.1,0l0,0.1c0.1,0.1,0.3,0.2,0.3,0.2
					c-0.1-0.2-0.2-0.2-0.3-0.5c-0.2-0.2-0.3-0.6-0.4-0.9c-0.2-0.6,0.1-0.4-0.1-0.7C321.4,104.2,321.4,104.3,321.4,104.7z"/>
				<path class="st0" d="M318.8,114.2c0.1,0,0,0,0.2,0.1l0,0.1c0.2,0.1,0.4,0.1,0.5,0.2c0,0,0.3,0.2,0.3,0.2c0,0,0.1,0,0.1,0
					l0.1,0.1c0.1,0,0.1,0,0.2,0.2l0.1,0.2h0v0l0.1,0.1c0,0.1,0,0.3-0.1,0.3l-0.1,0.1l0,0.1c-0.2,0.2-0.3,0.2-0.4,0.2l-0.1,0.1
					l-0.1-0.1c-0.1,0-0.1,0-0.2,0l-0.2,0.3l0,0c-0.1,0.2-0.1,0.2-0.2,0.2l0,0l0,0l0,0l0-0.2c0,0.1,0,0.1-0.1,0.2c0-0.1,0-0.2,0-0.3
					c-0.1,0.3-0.2,0.5-0.3,0.8l0,0l0,0.1c0,0,0,0.2,0,0.7c0,0.4,0,0.6,0,0.7c0,0.1,0,0.2,0,0.2c0.1,0.1,0.2,0.3,0.2,0.4
					c0,0.1,0,0,0,0.1h0c0,0.1,0.1,0.1,0.2,0.3c0.1,0.1,0.1,0.3,0,0.3c-0.1,0.2,0.1,0.2,0,0.3c0,0-0.1,0-0.1,0.1v0.1
					c-0.1,0-0.2,0.1-0.2,0.1c0,0-0.1,0.1-0.1,0.1c-0.2,0-0.2,0-0.3,0c0,0-0.1,0-0.2,0s-0.2,0-0.3-0.1c-0.1-0.1,0-0.2-0.1-0.2
					c0,0,0,0-0.1,0c-0.1-0.1-0.1,0-0.2-0.2s-0.2-0.2-0.2-0.2c0,0,0,0-0.1,0c0,0.3,0,0.6,0,0.6c0,0,0,0.1,0,0.2c0,0.1,0,0.2,0,0.5v0
					c0,0.2,0,0.2,0,0.3c0,0.1,0,0.2,0,0.3s0,0.6,0,1.3h0c0,0.2,0,0.3,0,0.4c0,0,0.1,0.4,0,0.5l0,0c0,0,0,0.4,0.1,0.5
					c0,0.2,0,0.2,0.1,0.3l0,0l0.1,0.1c-0.1,0-0.1,0-0.2,0.1c-0.1,0,0.1,0.3,0,0.4h-0.1c0,0,0,0,0,0.1c0,0.2,0,0.1-0.2,0.2
					c0,0,0,0-0.1,0l-0.1,0.2l0,0.1l-0.1,0.1c0,0-0.2,0.1-0.5,0c0-0.1-0.1-0.2-0.2-0.3l-0.1,0c-0.1,0-0.2,0.1-0.2,0.1
					c-0.1-0.1,0,0,0-0.3l0,0l-0.1-0.2l0,0v0l0,0l0,0c0,0,0-0.1,0-0.2c0.1,0,0.1,0,0.1,0.1v-0.2h-0.1l0,0l0,0l0.1,0l-0.1-0.1h0.1l0,0
					h0h0c0,0,0-0.1,0-0.2c0,0,0-0.2,0-0.2s0,0,0-0.1c0,0,0-0.2,0.2-0.5c0,0,0,0,0.1,0c0,0,0,0,0-0.1c0,0,0.1-0.3,0.1-1.4
					c0-0.7,0-1.4,0.1-2.1c0-0.3,0-0.6,0.1-0.8c0.1-0.4,0-0.3,0-0.4h0c0-0.3,0.1-0.6,0.1-1.2c0,0-0.2,0-0.4-0.2
					c-0.2-0.2-0.4-0.1-0.4-0.2c0-0.2-0.1-0.2-0.1-0.2c0.2-0.2,0.2,0,0.5-0.3c0.2-0.2,0.6-0.4,1.1-0.8l0.5-0.4l0.3-0.2
					c0-0.1,0-0.5,0-0.5c0-0.1,0-0.3,0-0.3c0.2-0.1,0.3-0.1,0.4,0l0.1-0.1L318.8,114.2z M318.3,115.8l-0.2,0.2l-0.1,0.2h0
					c0.1,0-0.2,0.3-0.2,0.4c0,0.1,0,0.2-0.1,0.3c-0.1,0.3-0.2,0.4-0.3,0.5c0,0,0.1,0,0.1,0c0,0,0,0.2,0,0.7c0,0.5,0,0.7,0,0.8
					c0,0,0,0,0.1,0l0,0c0.2,0,0.2,0,0.2,0.1v0c0,0,0.1,0,0.2,0.1c0,0,0-0.4,0-1.2c0-0.8,0.1-1.3,0.1-1.5
					C318.3,116,318.3,116,318.3,115.8L318.3,115.8z M322.4,113.9c0,0,0,0,0.2,0c0.2,0,0.2,0,0.2,0l0,0c0-0.1,0.3,0.1,0.4,0.2v0
					c0,0,0,0,0.1,0.2c0.2,0.2,0.1,0.2,0.1,0.3l0.1,0.1l0,0.1c0,0,0,0.1,0,0.2v0c0.1,0,0.1,0,0.2,0c0,0,0,0,0-0.1l0,0c0,0,0,0,0.1,0
					l0,0.1c0.1,0.1,0.2,0.1,0.2,0.1h0c0.1,0,0,0,0.2,0.1c0.3,0.2,0.2,0.1,0.4,0.2l0,0c0,0.1,0,0.2,0,0.2l0.1,0c0-0.1,0-0.2,0-0.2
					l0,0h0c0.1,0.1,0,0.2,0,0.2l0.2,0.1l0,0l0,0.1l-0.1,0c0,0,0,0.1,0.1,0.2v0c0,0-0.1,0-0.1,0v0.1l0,0v0.1h0c0,0,0,0-0.1,0
					l-0.1,0.1c-0.1,0-0.1,0-0.3,0l0,0l0,0l0,0.1c0,0-0.1,0-0.1,0c0,0-0.2,0.1-0.5,0.2c0,0.2,0,0.3,0,0.5c0.1,0,0.1,0,0.2-0.1l0,0
					l0.1,0l0,0c0.2-0.1-0.2,0,0.9-0.3l0-0.1h0c0-0.1,0-0.2,0-0.2l0.1,0v-0.1l0,0l0.1,0.1l0.1,0.1h0l0,0l0-0.1h0v0h0v0
					c0,0,0.1,0,0.2,0l0,0l0.1-0.1c0,0,0.1,0,0.1-0.1v0c0.1,0.1,0.2,0,0.2,0.1l0.1,0.2c0.1,0,0.4,0.2,0.5,0.4
					c0.1,0.2,0.4,0.6,0.3,0.6c0,0.1,0,0.3,0,0.4l-0.1,0c0,0,0,0.1-0.1,0.2c-0.1,0.2-0.1,0.2-0.2,0.3c-0.2,0.2-0.3,1-0.5,1.8
					c-0.2,0.8-0.5,1.4-0.5,1.5l0,0l0,0.1h0c0,0,0.1,0-0.4,0.2v0h-0.1v0c0,0,0,0-0.1,0.1l0-0.1c0,0-0.1,0.1-0.1,0.2
					c0-0.1,0-0.1,0-0.1h0l-0.1-0.1l-0.1,0.1l0-0.1v0v0l-0.1,0v0l0,0.1v0h-0.1l0-0.1c-0.5,0-0.4,0-0.6,0c0,0,0,0-0.1,0.2
					c0,0.2,0,0.2,0,0.2c0,0.2,0,0.2,0,0.2c0,0,0.1,0,0.2,0c0,0,0,0,0.5,0l0.6,0c0.4,0,0.3,0,0.3,0c0-0.1,0,0,0-0.2l0,0l0,0v0l0,0
					c0,0,0,0.1,0.1,0.2c0.1,0,0.1,0,0.2-0.1v0v0l0-0.1l0,0l0,0l0,0c0,0,0,0,0-0.1h0v0.1v0l0,0h0v0l0.1-0.1v0h0h0l0.1-0.1l0,0h0l0,0
					v0h0.1l0-0.1h0v0c0,0,0.1,0.1,0,0.2l0,0.1c0.2,0.2,0.2,0.2,0.4,0.2c0.2,0.1,0.3,0,0.5,0.2c0,0.1,0,0.1,0.1,0.2
					c-0.1,0.1,0,0.2,0,0.3c0,0.1-0.1,0.2-0.1,0.2l-0.1,0.1l-0.1,0.1c-0.2,0.1-0.2,0.2-0.5,0.2c-0.3,0-0.5-0.2-0.6-0.1l0-0.1
					c-0.1-0.1-0.3-0.2-0.8-0.2c-0.9,0-1.2,0-1.2,0c0,0.4,0.1,0.6,0.1,0.7c0,0.2,0,0.3-0.1,0.5c0,0.2-0.1,0.3,0,0.4
					c0.1,0.1,0.1,0.5,0,0.5c-0.1,0.1,0,0.3-0.1,0.4c-0.1,0.1,0.1,0.3-0.1,0.4l-0.2-0.1l-0.1,0c0,0,0,0.2,0,0.3l0-0.2h0
					c0,0.2,0,0.1,0,0.2h0c0,0.2,0,0.2,0,0.2l-0.2-0.1c0,0-0.2,0.1-0.3,0.1c0,0-0.4,0.1-0.3,0c0,0-0.1-0.2-0.2-0.3
					c-0.1-0.2-0.1-0.3-0.2-0.3h-0.2l0,0l0,0c0,0,0-0.3,0-0.4c0-0.1,0-0.2-0.1-0.2c-0.1,0-0.1,0-0.2,0c0,0,0-0.1,0-0.1
					c0-0.2,0.1-0.2,0.1-0.3h0v-0.1c0,0,0,0,0.1,0l0,0v0v0v0h0v-0.1h0l0,0l0,0l0,0c0.1-0.1,0.2-0.1,0.2-0.3c0-0.2,0-0.2,0-0.3
					c0-0.1,0-0.2,0-0.3c0-0.2,0-0.2,0-0.3l-0.2,0c0,0-0.2,0.1-0.5,0.2c-0.9,0.3-0.8,0.4-1.1,0.5v0.1c0,0-0.1,0-0.1,0.1
					c0,0.2,0,0.1-0.1,0.2c-0.1,0.1-0.1,0.1-0.3,0.2l0,0.1c-0.1-0.1-0.1-0.1-0.3-0.1l-0.2-0.2l-0.1,0v0l-0.1-0.1v-0.1l0-0.1l-0.2-0.1
					v0c0-0.1,0.1-0.2,0-0.3c-0.1-0.2,0-0.2,0-0.2h0.1l-0.1-0.1v-0.1l0.1,0c0,0,0-0.1,0-0.1h0l0,0l0.2,0l0.1-0.1c0.1,0,0.1,0,0.2,0
					c0.1,0,0.1,0.1,0.2,0.1c0.1,0,0.2,0,0.4-0.1c0.4-0.1,0.8-0.3,2.1-0.6l0,0h0c0,0,0,0,0-0.3c0-0.3,0-0.2,0-0.3
					c-0.3,0.1-0.4,0.1-0.6,0.2c-0.2,0.1-0.2,0.1-0.3,0.2l0,0.1l-0.1,0.1v0.1c-0.2,0.1-0.2,0-0.4,0c-0.1-0.1-0.1-0.2-0.2-0.2l0,0
					c0-0.1-0.1-0.1-0.1-0.2l-0.1-0.1L320,122c0-0.2,0.1-0.2,0.1-0.2c0-0.2-0.1-0.2-0.2-0.4c0-0.1-0.3-0.2-0.3-0.2l0.1,0l0.1-0.1v0
					l-0.1,0l0.1-0.1l0,0l0-0.1l-0.1,0l0.1,0l0.1-0.1c0-0.2,0-0.1,0-0.2h-0.1c0,0,0-0.1,0-0.1c0,0,0,0,0.1,0l0,0v0l0,0l0.1,0l0-0.1
					c0,0,0-0.1,0-0.2c0-0.2,0-0.2,0-0.5s-0.2-0.7-0.2-0.9c-0.2-0.3-0.3-0.4-0.3-0.4l0.1,0c-0.1-0.1-0.1-0.2-0.1-0.2h0
					c0,0,0-0.1-0.1-0.2h0.1l0,0h0.1v0c0,0,0,0,0.1,0c0,0,0,0,0.1,0l-0.1-0.1l0.1,0c0.5,0.2,0.5,0.2,0.8,0.4c0.2,0.1,0.6,0,0.9-0.2
					c0.5-0.2,0.7-0.3,0.9-0.3c0-0.1,0-0.2,0-0.3c0,0-0.1,0-0.2,0.1c-0.1,0.2-0.2,0.1-0.3,0.2c-0.1,0.1-0.5-0.2-0.5-0.1
					c-0.3-0.4-0.2-0.3-0.5-0.6l-0.2-0.1c-0.2-0.2-0.2-0.2-0.2-0.3l0.1,0v0l-0.1,0c-0.1-0.1-0.1-0.1-0.1-0.2h0l0-0.1h0c0,0,0,0,0-0.1
					h0V116l0.2,0l0,0l0-0.1h0v0c0.2,0,0,0,0.5-0.1c0.6-0.1,0.8-0.2,0.9-0.3c0-0.3,0-0.3-0.2-0.5L322,115v0c0,0,0,0,0,0l0-0.1l-0.1,0
					v0l0,0l0-0.2h0v-0.1h-0.2c0.1,0,0.1,0,0.1,0c0.1-0.1,0,0,0.1-0.2c0.1-0.1,0,0,0.3-0.2c0-0.1,0-0.1,0-0.1L322.4,113.9z
					 M322.2,118.3l-0.5,0.2c-0.5,0.2-0.6,0.3-0.8,0.4v0.4c0.1,0,0.3-0.1,0.3,0c0,0,0,0,0.2,0c0.1,0,0.2,0,0.8-0.3l0-0.1
					C322.2,118.8,322.2,118.7,322.2,118.3L322.2,118.3z M321.7,120.3c-0.5,0.2-0.6,0.3-0.7,0.3l0,0c0,0,0-0.1,0.1,0.5c0,0,0,0,0.2,0
					c0.1,0,0.2-0.1,0.4-0.1c0.3,0,0.3-0.1,0.4-0.1c0-0.2,0-0.3,0-0.4c0-0.2,0-0.2,0-0.4C321.8,120.2,321.8,120.2,321.7,120.3z
					 M323.4,119.6c0,0.2,0,0.4,0,0.6v0.2l0,0c0-0.1,0-0.1,0.2-0.2c0.2,0,0.2-0.1,0.2-0.2c0-0.1,0-0.1,0-0.1c0,0,0-0.2,0-0.6
					C323.8,119.6,323.6,119.6,323.4,119.6z M324.3,117.1c-0.4,0.2-0.5,0.2-0.8,0.4c0,0.3-0.1,0.7,0,0.8l0,0l0,0l0.1,0.1
					c0.1,0,0.1,0,0.3,0.1c0.2,0,0.2,0.1,0.3,0.1l0.1-0.5l0.2-0.5c0.1-0.3,0.2-0.5,0.2-0.5C324.6,117,324.5,117,324.3,117.1z"/>
			</g>
		</g>
	</g>
</g>
<g>
	<polygon class="st0" points="102,61.2 102,55.4 96.2,55.4 96.2,53.9 102,53.9 102,48 103.5,48 103.5,53.9 109.4,53.9 109.4,55.4 
		103.5,55.4 103.5,61.2 	"/>
</g>
<g>
	<g>
		<g>
			<path class="st0" d="M22,63.4l8.6-5.9c-0.4-0.7-0.6-1.5-0.7-2.3l0,0l-5.3,1.3l-2.3-1.9l2.3-1.8l5.3,1.3l0,0
				c0.1-0.8,0.3-1.6,0.7-2.3L22,45.9l0,0c-0.7-0.6-1.6-1.1-2.5-1.5c-4.7-2-10.1,0-12.5,4.4c-0.3-0.1-0.7-0.1-1.1-0.1
				c-3.3,0-5.9,2.7-5.9,5.9s2.7,5.9,5.9,5.9c0.4,0,0.7,0,1.1-0.1c1,1.9,2.7,3.5,4.9,4.4C15.5,66.3,19.3,65.6,22,63.4L22,63.4z"/>
		</g>
		<g>
			<path class="st0" d="M31.6,50.4c1-1,2.2-1.6,3.7-1.7l0,0L34,43.4l1.8-2.3l1.8,2.3l-1.3,5.3l0,0c1.4,0.1,2.7,0.8,3.7,1.7l7.9-5.4
				c2.3-2.3,2.3-6.1,0-8.4c-1.7-1.7-4.1-2.1-6.2-1.4c-0.1-3.1-2.7-5.6-5.9-5.6s-5.8,2.5-5.9,5.6c-2.1-0.7-4.5-0.3-6.2,1.4
				c-2.3,2.3-2.3,6.1,0,8.4L31.6,50.4z"/>
		</g>
		<g>
			<path class="st0" d="M40,58.8c-1,1-2.2,1.6-3.7,1.7c0,0,0,0,0,0.1l1.3,5.3l-1.8,2.3L34,65.9l1.3-5.3c0,0,0,0,0-0.1
				c-1.4-0.1-2.7-0.8-3.7-1.7l-7.9,5.4c-2.3,2.3-2.3,6.1,0,8.4c1.7,1.7,4.1,2.1,6.2,1.4c0.2,3.1,2.7,5.6,5.9,5.6
				c3.2,0,5.8-2.5,5.9-5.6c2.1,0.7,4.5,0.3,6.2-1.4c2.3-2.3,2.3-6.1,0-8.4L40,58.8z"/>
		</g>
		<g>
			<path class="st0" d="M65.5,48.7c-0.4,0-0.7,0-1.1,0.1c-2.4-4.4-7.7-6.4-12.5-4.4c-0.9,0.4-1.7,0.9-2.5,1.5l0,0l-8.6,5.9
				c0.4,0.7,0.6,1.5,0.7,2.3l0,0l5.3-1.3l2.3,1.8l-2.3,1.8l-5.3-1.3l0,0c-0.1,0.8-0.3,1.6-0.7,2.3l8.6,5.9l0,0
				c2.7,2.2,6.5,2.9,10,1.5c2.2-0.9,3.9-2.5,4.9-4.4c0.3,0.1,0.7,0.1,1.1,0.1c3.3,0,5.9-2.7,5.9-5.9S68.8,48.7,65.5,48.7z"/>
		</g>
		<g>
			<circle class="st0" cx="35.8" cy="54.6" r="4.6"/>
		</g>
	</g>
	<g>
		<g>
			<g>
				<path class="st0" d="M17.1,115v0.5h-1.9v6.4h-0.6V115H17.1z"/>
				<path class="st0" d="M18.6,116.3h0.6c0.3,0,1.3,0,2.1-0.1l3.7-0.1l0.1-0.1l0.5,0.5c0.1,0,0.1,0.1,0.1,0.1c0,0.1,0,0.1-0.2,0.1
					l-0.1,0.2c-0.4,0.8-0.8,1.4-1.8,2.2c-0.1-0.2-0.2-0.4-0.4-0.5c0.8-0.6,1.3-1.2,1.6-1.9l-3.5,0.2c-1.2,0-1.2,0-1.7,0.1
					c-0.1,0-0.1,0-0.5,0c-0.2,0-0.2,0-0.5,0L18.6,116.3z M22.6,117.7c0.1,0,0.1,0.1,0.1,0.1c0,0.1,0,0.1-0.2,0.2
					c-0.1,1.1-0.1,1.6-0.3,2.2c-0.3,0.9-0.8,1.8-1.5,2.4c-0.2,0.2-0.3,0.3-0.7,0.5c-0.2-0.3-0.2-0.3-0.4-0.5
					c1.6-1.1,2.2-2.3,2.2-4.7c0,0,0-0.1,0-0.2L22.6,117.7z"/>
				<path class="st0" d="M31.6,117.7c0-1.4,0-1.6-0.1-1.8l0.7,0.1c0.1,0,0.1,0,0.1,0.1c0,0.1,0,0.1-0.2,0.2c0,0.2,0,0.7,0,1.5l1,0
					c0.4,0,0.9,0,1.4-0.1l0,0.6c-0.4,0-0.4,0-0.6,0c-0.2,0-0.6,0-0.8,0l-1,0v1.8c0,0.3,0,0.9,0,1.3c0,0.4,0,0.4,0,0.5
					c0,0.4,0,0.5-0.2,0.7c-0.2,0.2-0.5,0.2-1,0.2c-0.1,0-0.3,0-0.5,0c0-0.3,0-0.5-0.2-0.7c0.5,0.1,0.6,0.1,0.9,0.1
					c0.3,0,0.3-0.1,0.3-0.4v-3.1c-0.7,1.2-2,2.4-3.7,3.4c-0.2-0.3-0.2-0.4-0.4-0.5c1-0.5,1.7-1.1,2.4-1.8c0.5-0.5,0.7-0.7,1.2-1.4
					l-1.9,0c-0.4,0-0.8,0-1.4,0.1l0-0.6c0.2,0,0.3,0,0.5,0l0.9,0L31.6,117.7z"/>
				<path class="st0" d="M39.5,117.9C39.5,117.9,39.5,117.9,39.5,117.9c0.1,0.2,0,0.2-0.1,0.2c-0.6,1-0.9,1.4-1.4,1.9
					c-0.5,0.5-0.9,0.8-1.6,1.2c-0.1-0.3-0.2-0.4-0.4-0.6c0.9-0.5,1.5-1.1,2.1-1.7c0.4-0.5,0.5-0.6,0.8-1.3L39.5,117.9z M41.4,117.3
					c1.3,1,2.1,1.9,2.9,3.3l-0.6,0.4c-0.7-1.4-1.4-2.3-2.7-3.3L41.4,117.3z M42.5,116.4c0.4,0.3,0.7,0.5,1.1,0.9l-0.4,0.4
					c-0.4-0.4-0.6-0.6-1.1-0.9L42.5,116.4z M43.1,115.6c0.4,0.3,0.7,0.5,1.1,0.9l-0.4,0.4c-0.4-0.4-0.6-0.6-1.1-0.9L43.1,115.6z"/>
				<path class="st0" d="M49.7,118.5c-0.1,1.1-0.1,1.3-0.3,1.8c-0.3,0.8-0.9,1.5-1.8,2.1c-0.3,0.2-0.5,0.3-1,0.5
					c-0.1-0.3-0.2-0.4-0.4-0.5c0.8-0.3,1.1-0.5,1.5-0.9c0.8-0.7,1.1-1.4,1.2-2.6c0-0.1,0-0.2,0-0.5h-2.2c-0.4,0-0.9,0-1.3,0v-0.7
					c0.3,0,0.9,0,1.3,0H49V117c0-0.7,0-1.1,0-1.4l0.7,0.1c0.1,0,0.2,0,0.2,0.1s0,0.1-0.2,0.2c0,0.3,0,0.3,0,1v0.9h1.9
					c0.4,0,0.9,0,1.3,0v0.7c-0.3,0-0.9,0-1.3,0H49.7z"/>
				<path class="st0" d="M54.2,123.4v-0.5h1.9v-6.4h0.6v6.9H54.2z"/>
			</g>
		</g>
		<g>
			<g>
				<path class="st0" d="M15.5,105v0.3h-0.6c0-0.2,0-0.5,0-1v-1.4c0-0.3,0-0.6,0-0.8c0.3,0,0.6,0,1,0h3.4c0.4,0,0.7,0,1,0
					c0,0.2,0,0.5,0,0.8v1.4c0,0.4,0,0.7,0,0.9h-0.6V105h-1.8v0.8H20c0.6,0,1.3,0,1.8,0v0.6c-0.5,0-1.2,0-1.8,0h-2.1v0.1
					c0,0.7,0,1.3,0,1.6h-0.6c0-0.4,0-0.9,0-1.6v-0.1h-2.1c-0.5,0-1.3,0-1.8,0v-0.6c0.5,0,1.3,0,1.8,0h2.1V105H15.5z M19.1,101.1
					c0,0.4,0,0.6,0,0.8h-0.6c0-0.2,0-0.4,0-0.8h-1.9c0,0.4,0,0.6,0,0.8H16c0-0.2,0-0.4,0-0.8h-0.7c-0.5,0-1.3,0-1.8,0v-0.6
					c0.5,0,1.3,0,1.8,0h0.7v-0.1c0-0.4,0-0.7,0-0.9l0.6,0.1c0.1,0,0.2,0,0.2,0.1c0,0.1,0,0.1-0.2,0.2v0.6h1.9v-0.1
					c0-0.4,0-0.7,0-0.9l0.6,0.1c0.1,0,0.2,0,0.2,0.1c0,0.1-0.1,0.1-0.2,0.2v0.6h0.7c0.6,0,1.3,0,1.8,0v0.6c-0.5,0-1.2,0-1.8,0H19.1z
					 M19.7,103.3v-0.7h-4.2v0.7H19.7z M15.5,104.4h4.2v-0.7h-4.2V104.4z"/>
				<path class="st0" d="M22.9,101.8c0.5,0.4,0.8,0.7,1.1,1.1l-0.5,0.4c-0.4-0.6-0.6-0.8-1-1.2L22.9,101.8z M24.5,104.3
					c-0.5,1.4-0.7,1.8-1.1,2.8c-0.1,0.3-0.2,0.4-0.2,0.6l0,0.1c0,0.1,0,0.1-0.1,0.1c0,0-0.1,0-0.1-0.1l-0.5-0.5
					c0.5-0.7,1-1.9,1.6-3.5L24.5,104.3z M23.5,99.8c0.4,0.4,0.7,0.6,1.1,1.1l-0.5,0.4c-0.4-0.5-0.6-0.8-1-1.2L23.5,99.8z
					 M27.7,104.7H29c0.4,0,0.9,0,1.3,0v0.6c-0.3,0-0.9,0-1.3,0h-1.4v0.8h1.9c0.4,0,0.9,0,1.3,0v0.6c-0.3,0-0.9,0-1.3,0h-1.9
					c0,0.6,0,1.1,0,1.4H27c0-0.4,0-0.8,0-1.4h-1.6c-0.4,0-0.9,0-1.3,0V106c0.3,0,0.9,0,1.3,0h1.6v-0.8h-1.3c-0.4,0-0.9,0-1.3,0v-0.6
					c0.4,0,0.9,0,1.3,0h1.3v-0.7h-1c-0.3,0-0.8,0-1.1,0v-0.6c0.3,0,0.7,0,1.1,0h1v-0.8h-1.6c-0.3,0-0.8,0-1.1,0V102
					c0.3,0,0.7,0,1.1,0h1.6v-0.8h-1c-0.3,0-0.8,0-1.1,0v-0.6c0.3,0,0.7,0,1.1,0h1c0-0.6,0-0.9-0.1-1.1l0.7,0.1c0.1,0,0.1,0,0.1,0.1
					c0,0.1,0,0.1-0.2,0.2c0,0.2,0,0.3,0,0.8h1c0.8,0,0.8,0,1.1,0c0,0.2,0,0.2,0,0.8v0.5h0c0.4,0,0.8,0,1.1,0v0.6c-0.3,0-0.8,0-1.1,0
					h0v0.7c0,0.4,0,0.4,0,0.9h-0.6v-0.2h-1.5V104.7z M29.1,102.1v-0.8h-1.5v0.8H29.1z M29.1,103.4v-0.8h-1.5v0.8H29.1z"/>
				<path class="st0" d="M35.3,100.5c0-0.4,0-0.5,0-0.8l0.6,0.1c0.1,0,0.2,0,0.2,0.1s0,0.1-0.2,0.2v1H38c0.5,0,1.3,0,1.8,0v0.6
					c-0.5,0-1.3,0-1.8,0h-4.7c-0.5,0-1.3,0-1.8,0v-0.6c0.5,0,1.3,0,1.8,0h2.1V100.5z M37.4,102.9c0.5,0,1,0,1.3,0c0,0.3,0,0.3,0,1.8
					v0.7c0,0.2,0,0.6,0,1l0,0.1c0,0.6-0.3,0.8-1.5,0.8c0-0.3,0-0.4-0.2-0.7c0.3,0,0.4,0,0.6,0c0.4,0,0.4,0,0.4-0.4v-2.8h-2.2v2.7
					c0,0.8,0,1.4,0,1.8h-0.7c0-0.4,0-1,0-1.8v-2.7h-2.1v1.6c0,1.7,0,1.7,0,2.1h-0.7c0-0.4,0-1.2,0-1.8v-0.8c0-1.5,0-1.5,0-1.8
					c0.4,0,0.9,0,1.4,0h1.4c0-0.6,0-1,0-1.2l0.7,0.1c0.1,0,0.1,0,0.1,0.1c0,0,0,0.1-0.2,0.2c0,0.1,0,0.1,0,0.8H37.4z"/>
				<path class="st0" d="M44.8,101.8c0.1,0,0.1,0.1,0.1,0.1c0,0,0,0.1-0.1,0.2c-0.2,1.1-0.4,1.8-0.7,2.6c-0.5,1.3-1,1.9-1.8,1.9
					c-0.8,0-1.3-0.7-1.3-1.9c0-1.3,0.8-2.4,2-3c0.6-0.3,1.2-0.4,1.9-0.4c1.2,0,2.2,0.4,2.8,1.1c0.4,0.5,0.6,1.1,0.6,1.8
					c0,1-0.5,1.8-1.5,2.4c-0.4,0.2-0.6,0.3-1.5,0.7c-0.1-0.4-0.2-0.4-0.3-0.6c0.9-0.3,1.2-0.4,1.7-0.7c0.6-0.5,1-1.1,1-1.8
					c0-0.8-0.3-1.5-1-1.9c-0.5-0.3-1.1-0.5-1.7-0.5c-0.1,0-0.1,0-0.4,0L44.8,101.8z M42.6,102.5c-0.6,0.6-0.9,1.3-0.9,2.1
					c0,0.7,0.3,1.3,0.7,1.3c0.4,0,0.7-0.4,1.1-1.2c0.4-1,0.7-2.3,0.7-3C43.4,101.9,43,102.1,42.6,102.5z"/>
				<path class="st0" d="M51.8,103.9c0.1,0,0.2,0,0.2,0.1c0,0.1,0,0.1-0.2,0.2c0,0.5,0,0.9,0,1v1.3c0,0.7,0,1.2,0,1.5h-0.7
					c0-0.4,0-0.8,0-1.5v-2c-0.5,0.5-0.7,0.8-1.4,1.3c-0.1-0.2-0.2-0.3-0.3-0.5c1.2-0.9,1.8-1.7,2.5-3l0.5,0.2c0.1,0,0.1,0.1,0.1,0.1
					c0,0.1,0,0.1-0.2,0.2c-0.3,0.5-0.5,0.8-0.7,1.1L51.8,103.9z M55.1,101.3c0,0.4,0,0.7,0,0.8h-0.6c0-0.2,0-0.5,0-0.8v-0.1h-1.9
					v0.1c0,0.4,0,0.7,0,0.8H52c0-0.2,0-0.5,0-0.8v-0.1h-0.6c-0.5,0-1.3,0-1.8,0v-0.6c0.5,0,1.3,0,1.8,0h0.6v-0.3c0-0.4,0-0.7,0-0.9
					l0.6,0.1c0.1,0,0.2,0,0.2,0.1c0,0.1-0.1,0.1-0.2,0.2v0.8h1.9v-0.3c0-0.4,0-0.7,0-0.9l0.6,0.1c0.1,0,0.2,0,0.2,0.1
					c0,0.1-0.1,0.1-0.2,0.2v0.8h0.7c0.6,0,1.3,0,1.8,0v0.6c-0.5,0-1.2,0-1.8,0L55.1,101.3L55.1,101.3z M54.5,104.6
					c0.9-0.5,1.4-0.9,2.2-1.6l0.6,0.4c0.1,0,0.1,0.1,0.1,0.1c0,0.1-0.1,0.1-0.3,0.1c-0.8,0.7-1.6,1.1-2.5,1.5v1.6
					c0,0.2,0,0.3,0.1,0.3c0.1,0.1,0.5,0.1,1,0.1c1,0,1.3,0,1.4-0.2c0.1-0.1,0.2-0.4,0.2-0.9v-0.3c0.2,0.1,0.4,0.1,0.6,0.2
					c-0.1,1.1-0.2,1.4-0.5,1.6c-0.2,0.1-0.6,0.2-1.9,0.2c-1.4,0-1.6-0.1-1.6-0.7v-3.3c0-0.7,0-1.1,0-1.4l0.7,0.1
					c0.1,0,0.2,0,0.2,0.1s0,0.1-0.2,0.2c0,0.4,0,0.8,0,1V104.6z"/>
			</g>
		</g>
	</g>
</g>
<g>
	<g>
		<path class="st0" d="M134.3,54.6c0,13.8,11.2,25,25,25C159.3,65.8,148.1,54.6,134.3,54.6z"/>
		<path class="st0" d="M184.3,54.6c0-13.8-11.2-25-25-25C159.3,43.4,170.5,54.6,184.3,54.6z"/>
		<path class="st0" d="M159.3,29.6c-13.8,0-25,11.2-25,25C148.1,54.6,159.3,43.4,159.3,29.6z"/>
		<path class="st0" d="M159.3,79.6c13.8,0,25-11.2,25-25C170.5,54.6,159.3,65.8,159.3,79.6z"/>
	</g>
	<g>
		<g>
			<path class="st0" d="M140.3,103.6c-1.2,0.2-1.2,0.2-1.8,0.4l-0.1-0.6c1-0.2,1.6-0.3,1.8-0.3l0.6-0.1v-1.6c0-0.4,0-1.1,0-1.4
				l0.7,0.1c0.1,0,0.2,0,0.2,0.1c0,0.1,0,0.1-0.2,0.2v2.5l3.4-0.7c1.3-0.2,1.3-0.2,1.8-0.4l0.1,0.6c-1,0.2-1.6,0.3-1.8,0.3l-3.5,0.7
				v3.1c0,0.2,0,0.3,0.2,0.3c0.2,0,1,0.1,2.1,0.1c1,0,1.4-0.1,1.6-0.2c0.1-0.1,0.1-0.3,0.1-1.1c0.4,0.2,0.4,0.2,0.6,0.3
				c-0.1,0.9-0.1,1.2-0.3,1.4c-0.2,0.2-0.8,0.3-1.9,0.3c-0.1,0-0.3,0-0.7,0c-0.2,0-0.6,0-1.1,0c-1.2,0-1.4-0.1-1.4-0.7v-3.2
				L140.3,103.6z"/>
			<path class="st0" d="M151.2,105.2h-1.4c-0.4,0-0.9,0-1.3,0v-0.6c0.4,0,0.9,0,1.3,0h1.4v-1.5h-1.5c-0.4,0-0.9,0-1.3,0v-0.6
				c0.4,0,0.9,0,1.3,0h3.6c0.4,0,0.9,0,1.3,0v0.6c-0.3,0-0.9,0-1.3,0h-1.5v1.5h1.4c0.4,0,0.9,0,1.3,0v0.6c-0.3,0-0.9,0-1.3,0h-1.4
				v1.9h1.9c0.6,0,1.3,0,1.8,0v0.6c-0.5,0-1.2,0-1.8,0h-4.3c-0.5,0-1.3,0-1.8,0v-0.6c0.5,0,1.3,0,1.8,0h1.8V105.2z M151.2,100.2
				c0-0.2,0-0.5,0-0.6l0.6,0.1c0.1,0,0.2,0,0.2,0.1c0,0.1-0.1,0.1-0.2,0.2v0.7h1.7c0.6,0,1.3,0,1.8,0c0,0.3,0,0.5,0,0.7v0.2
				c0,0.2,0,0.5,0,0.8h-0.6c0-0.3,0-0.6,0-0.8v-0.3h-6.4v0.3c0,0.2,0,0.5,0,0.8h-0.6c0-0.3,0-0.6,0-0.8v-0.2c0-0.2,0-0.4,0-0.7
				c0.5,0,1.2,0,1.8,0h1.8V100.2z M152.8,105.5c0.5,0.3,0.8,0.6,1.2,1l-0.4,0.4c-0.5-0.6-0.7-0.7-1.1-1.1L152.8,105.5z"/>
			<path class="st0" d="M158.2,103.2c0.5,0.3,0.8,0.6,1.3,1l-0.4,0.5c-0.2-0.3-0.6-0.7-0.9-0.9v1.6c0,1.2,0,2.1,0,2.6h-0.7
				c0-0.6,0-1.5,0-2.6v-1.7c-0.4,1.2-0.6,1.7-1.1,2.5c-0.2-0.4-0.2-0.4-0.4-0.6c0.7-1.1,1.1-2,1.4-3.4h-0.4c-0.2,0-0.5,0-0.7,0v-0.6
				c0.2,0,0.5,0,0.7,0h0.5c0-1.1,0-1.7-0.1-2l0.7,0.1c0.1,0,0.1,0,0.1,0.1c0,0.1,0,0.1-0.2,0.2c0,0.3,0,0.3,0,1.7h0.4
				c0.2,0,0.5,0,0.7,0v0.6c-0.2,0-0.5,0-0.7,0h-0.4V103.2z M162.1,105.8c0.3,0.4,0.6,0.7,0.9,0.9c0.4,0.3,0.9,0.4,1.8,0.6
				c-0.1,0.2-0.2,0.3-0.3,0.6c-1-0.2-1.5-0.4-2-0.9c-0.3-0.3-0.6-0.5-0.8-0.9c-0.2,0.4-0.4,0.6-0.6,0.9c-0.5,0.5-1,0.7-2.2,1
				c-0.1-0.3-0.1-0.3-0.3-0.5c1-0.2,1.7-0.5,2.2-1c0.2-0.2,0.3-0.4,0.4-0.7h-1.1c-0.4,0-0.9,0-1.3,0v-0.6c0.3,0,0.9,0,1.3,0h1.2
				c0-0.2,0.1-0.4,0.1-0.6h-1.1v0.2h-0.6c0-0.2,0-0.5,0-1v-1.1c0-0.3,0-0.6,0-0.8c0.3,0,0.6,0,1,0h2.3c0.4,0,0.7,0,1,0
				c0,0.2,0,0.5,0,0.8v1.1c0,0.4,0,0.7,0,0.9h-0.6v-0.2H162c0,0.2-0.1,0.4-0.1,0.6h1.5c0.4,0,0.9,0,1.3,0v0.6c-0.3,0-0.9,0-1.3,0
				H162.1z M162.9,101.1c0,0.3,0,0.6,0,0.7h-0.6c0-0.2,0-0.4,0-0.7h-1.2c0,0.3,0,0.6,0,0.7h-0.6c0-0.2,0-0.4,0-0.7h-0.3
				c-0.4,0-0.9,0-1.3,0v-0.6c0.4,0,0.9,0,1.3,0h0.3v-0.1c0-0.4,0-0.7,0-0.9l0.6,0.1c0.1,0,0.2,0,0.2,0.1c0,0.1-0.1,0.1-0.2,0.2v0.6
				h1.2v-0.1c0-0.4,0-0.7,0-0.9l0.6,0.1c0.1,0,0.2,0,0.2,0.1c0,0.1-0.1,0.1-0.2,0.2v0.6h0.4c0.4,0,0.9,0,1.3,0v0.6
				c-0.3,0-0.9,0-1.3,0H162.9z M163.4,103.1v-0.5h-3.1v0.5H163.4z M160.3,104.1h3.1v-0.5h-3.1V104.1z"/>
			<path class="st0" d="M167.1,103.6c0.4,0.3,0.8,0.6,1.2,1l-0.4,0.5c-0.2-0.3-0.5-0.6-0.8-0.8v1.2c0,1.2,0,2.1,0,2.6h-0.7
				c0-0.6,0-1.5,0-2.6V104c-0.3,1.1-0.5,1.6-1,2.4c-0.2-0.3-0.2-0.4-0.4-0.5c0.7-1.1,1-2.1,1.3-3.4h-0.3c-0.2,0-0.5,0-0.7,0v-0.6
				c0.2,0,0.5,0,0.7,0h0.4c0-1.2,0-2-0.1-2.2l0.7,0.1c0.1,0,0.1,0,0.1,0.1c0,0.1-0.1,0.1-0.2,0.2c0,0.3,0,0.3,0,1.9h0.4
				c0.2,0,0.5,0,0.7,0v0.6c-0.2,0-0.5,0-0.7,0h-0.4V103.6z M171,104.1c0.1,0.3,0.3,0.6,0.5,0.9c0.5-0.3,0.6-0.4,1.2-1l0.5,0.4
				c0,0,0.1,0.1,0.1,0.1c0,0.1-0.1,0.1-0.2,0.1h-0.1c-0.2,0.1-0.2,0.1-0.7,0.4c-0.2,0.1-0.4,0.2-0.6,0.4c0.1,0.1,0.2,0.2,0.3,0.3
				c0.5,0.5,0.8,0.7,1.8,1.2c-0.2,0.2-0.3,0.3-0.5,0.5c-0.8-0.5-1.2-0.8-1.7-1.4c-0.3-0.3-0.5-0.6-0.6-0.9v0.2c0,0.4,0,0.9,0,1.7
				v0.1c0,0.4-0.1,0.5-0.3,0.7c-0.2,0.1-0.5,0.2-1.2,0.2c0-0.3,0-0.4-0.2-0.7c0.3,0,0.4,0,0.7,0c0.3,0,0.4,0,0.4-0.4v-1
				c-0.7,0.4-1.6,0.9-2.2,1.1c-0.1,0.1-0.1,0.2-0.2,0.2c0,0-0.1,0-0.1-0.1l-0.3-0.6c1.2-0.4,1.7-0.6,2.9-1.2v-1.6h-1.6
				c-0.3,0-0.6,0-0.9,0v-0.6c0.3,0,0.6,0,0.9,0h1.6v-0.6h-0.9c-0.3,0-0.6,0-0.9,0v-0.6c0.3,0,0.6,0,0.9,0h0.9v-0.5h-1.3
				c-0.3,0-0.6,0-0.9,0V101c0.3,0,0.6,0,0.9,0h1.9c0.3-0.5,0.5-0.9,0.7-1.5l0.6,0.3c0.1,0,0.1,0.1,0.1,0.1c0,0.1-0.1,0.1-0.2,0.1
				c-0.4,0.6-0.5,0.7-0.6,1h1c0.3,0,0.6,0,0.9,0v0.6c-0.3,0-0.6,0-0.9,0H171v0.5h1.1c0.3,0,0.6,0,0.9,0v0.6c-0.3,0-0.6,0-0.9,0H171
				v0.6h1.8c0.3,0,0.6,0,0.9,0v0.6c-0.3,0-0.6,0-0.9,0H171V104.1z M168.9,104.1c0.5,0.3,0.7,0.5,1.1,1l-0.5,0.4
				c-0.4-0.5-0.6-0.8-1-1.1L168.9,104.1z M169.4,99.7c0.4,0.4,0.6,0.6,0.9,1.1l-0.5,0.3c-0.3-0.5-0.5-0.8-0.8-1.1L169.4,99.7z"/>
		</g>
	</g>
</g>
<g>
	<g>
		<g>
			<polygon class="st0" points="219.2,60.5 225.6,54.6 219.2,48.7 220.3,47.5 228,54.6 220.3,61.7 			"/>
		</g>
	</g>
</g>
</svg>
