<?xml version="1.0" encoding="utf-8"?>
<!-- Generator: Adobe Illustrator 26.0.1, SVG Export Plug-In . SVG Version: 6.00 Build 0)  -->
<svg version="1.1" id="レイヤー_3のコピー_2"
	 xmlns="http://www.w3.org/2000/svg" xmlns:xlink="http://www.w3.org/1999/xlink" x="0px" y="0px" viewBox="0 0 300 242.7"
	 style="enable-background:new 0 0 300 242.7;" xml:space="preserve">
<style type="text/css">
	.st0{fill:#585656;}
</style>
<g>
	<g>
		<path class="st0" d="M27.9,213.5c0,0.2,0,0.3-0.1,0.3h-5l-1.7,0.1c-0.4,0-0.8-0.1-1.1-0.3c-0.3-0.2-0.6-0.6-1-1.2
			c-0.4-0.6-1.1-1.8-2.1-3.5l-1.8-3.1l-6.2-10.1l-1.1,1.4v12.2c0,1.1,0.1,2,0.2,2.5s0.5,0.9,0.9,1.1c0.5,0.2,1.2,0.3,2.2,0.3
			c0.1,0,0.2,0.1,0.2,0.3s-0.1,0.3-0.2,0.3c-0.9,0-1.7,0-2.3-0.1l-3.2-0.1l-3.2,0.1c-0.6,0-1.3,0.1-2.4,0.1c-0.1,0-0.1-0.1-0.1-0.3
			s0-0.3,0.1-0.3c1,0,1.7-0.1,2.2-0.3s0.8-0.5,1-1.1c0.2-0.5,0.3-1.4,0.3-2.5v-25.7c0-1.1-0.1-1.9-0.2-2.4c-0.2-0.5-0.5-0.9-1-1.1
			c-0.5-0.2-1.2-0.3-2.2-0.3c-0.1,0-0.1-0.1-0.1-0.3s0-0.3,0.1-0.3l2.4,0.1c1.3,0.1,2.3,0.1,3.1,0.1c0.9,0,2,0,3.3-0.1l2.2-0.1
			c0.1,0,0.1,0.1,0.1,0.3s0,0.3-0.1,0.3c-1,0-1.7,0.1-2.2,0.3s-0.8,0.6-0.9,1.1c-0.2,0.5-0.2,1.4-0.2,2.5v11.7l8.7-11
			c0.9-1.1,1.4-2.1,1.4-2.9c0-0.6-0.2-1-0.7-1.3s-1.1-0.5-2-0.5c-0.1,0-0.1-0.1-0.1-0.3s0-0.3,0.1-0.3l2,0.1
			c1.3,0.1,2.5,0.1,3.6,0.1c1.2,0,2.3,0,3.5-0.1l1.9-0.1c0.1,0,0.1,0.1,0.1,0.3s0,0.3-0.1,0.3c-1.3,0-2.7,0.4-4.3,1.3
			c-1.6,0.9-3,2.1-4.2,3.7l-5.7,7.1l6.5,10.8c2,3.4,3.5,5.9,4.6,7.3c1,1.4,1.8,2.3,2.4,2.6s1.4,0.5,2.4,0.5
			C27.9,213.2,27.9,213.3,27.9,213.5z"/>
		<path class="st0" d="M52.9,205.1c0.1,0,0.2,0,0.2,0.1c0.1,0.1,0.1,0.1,0.1,0.1c-0.3,2.8-0.4,5.4-0.4,7.7c0,0.3,0,0.5-0.1,0.6
			s-0.3,0.2-0.5,0.2H32.9c-0.1,0-0.1-0.1-0.1-0.3s0-0.3,0.1-0.3c1,0,1.7-0.1,2.2-0.3s0.8-0.5,0.9-1.1c0.2-0.5,0.2-1.4,0.2-2.5v-25.7
			c0-1.1-0.1-1.9-0.2-2.4c-0.2-0.5-0.5-0.9-1-1.1c-0.5-0.2-1.2-0.3-2.2-0.3c-0.1,0-0.1-0.1-0.1-0.3s0-0.3,0.1-0.3h18.5
			c0.3,0,0.4,0.2,0.4,0.5l0.1,7.2c0,0.1-0.1,0.1-0.2,0.2c-0.2,0-0.3,0-0.3-0.1c-0.7-4.2-2.8-6.3-6.2-6.3h-1.8
			c-1.1,0-1.8,0.2-2.3,0.7c-0.4,0.5-0.7,1.3-0.7,2.4v11.3h4.3c3.3,0,4.9-1.4,4.9-4.1c0-0.1,0.1-0.2,0.2-0.2c0.2,0,0.2,0.1,0.2,0.2
			v4.8v2.6c0.1,1.2,0.1,2.1,0.1,2.9c0,0.1-0.1,0.1-0.3,0.1s-0.3,0-0.3-0.1c0-3.2-1.7-4.8-5-4.8h-4.2v12.6c0,1.2,0.2,2.1,0.6,2.6
			c0.4,0.5,1,0.7,2,0.7H45c4,0,6.5-2.4,7.5-7.2C52.7,205.1,52.8,205.1,52.9,205.1z"/>
		<path class="st0" d="M68.5,211.9c0.1,0.5,0.5,0.9,0.9,1.1c0.5,0.2,1.2,0.3,2.2,0.3c0.1,0,0.1,0.1,0.1,0.3s0,0.3-0.1,0.3
			c-0.9,0-1.7,0-2.3-0.1l-3.3-0.1l-3.2,0.1c-0.6,0-1.3,0.1-2.3,0.1c-0.1,0-0.1-0.1-0.1-0.3s0-0.3,0.1-0.3c1,0,1.7-0.1,2.2-0.3
			s0.8-0.5,1-1.1c0.2-0.5,0.3-1.4,0.3-2.5v-25.7c0-1.1-0.1-1.9-0.3-2.4s-0.5-0.9-1-1.1c-0.5-0.2-1.2-0.3-2.2-0.3
			c-0.1,0-0.1-0.1-0.1-0.3s0-0.3,0.1-0.3l2.3,0.1c1.3,0.1,2.4,0.1,3.2,0.1c0.9,0,2,0,3.3-0.1l2.2-0.1c0.1,0,0.1,0.1,0.1,0.3
			s0,0.3-0.1,0.3c-1,0-1.7,0.1-2.2,0.3s-0.8,0.6-0.9,1.1c-0.2,0.5-0.2,1.4-0.2,2.5v25.6C68.3,210.5,68.4,211.4,68.5,211.9z"/>
		<path class="st0" d="M86.8,212.2c-2.5-1.6-4.4-3.7-5.7-6.5c-1.3-2.7-2-5.7-2-9.1c0-3.6,0.7-6.7,2.2-9.4s3.5-4.9,6.1-6.4
			s5.5-2.2,8.7-2.2c1.5,0,2.9,0.1,4.3,0.4c1.4,0.3,2.6,0.7,3.4,1.3c0.3,0.1,0.4,0.3,0.5,0.4c0,0.1,0.1,0.4,0.1,0.9l0.6,7.3
			c0,0.1-0.1,0.2-0.2,0.2c-0.2,0-0.3,0-0.3-0.2c-0.6-2.3-1.8-4.5-3.4-6.4c-1.7-1.9-3.8-2.9-6.4-2.9c-2,0-3.9,0.6-5.6,1.9
			c-1.7,1.3-3,3.2-4,5.6c-1,2.4-1.4,5.2-1.4,8.4c0,3.4,0.5,6.4,1.6,9.2s2.5,4.9,4.5,6.5c1.9,1.6,4.2,2.4,6.7,2.4
			c1.3,0,2.3-0.2,3-0.6c0.7-0.4,1.2-1,1.6-2c0.3-1,0.5-2.4,0.5-4.2c0-1.9-0.1-3.3-0.3-4c-0.2-0.8-0.6-1.3-1.2-1.5
			c-0.6-0.3-1.7-0.4-3.2-0.4c-0.2,0-0.3-0.1-0.3-0.4c0-0.1,0-0.2,0.1-0.3c0-0.1,0.1-0.1,0.2-0.1c2.5,0.2,4.4,0.3,5.9,0.3
			s3-0.1,4.6-0.2c0.1,0,0.1,0,0.2,0.1c0,0.1,0.1,0.2,0.1,0.2c0,0.3-0.1,0.4-0.2,0.4c-0.6,0-1,0.1-1.2,0.4c-0.2,0.3-0.4,0.8-0.5,1.7
			s-0.1,2.3-0.1,4.4c0,1.7,0.1,2.8,0.2,3.6c0.1,0.7,0.2,1.1,0.2,1.3s0,0.4-0.1,0.4c-0.1,0.1-0.2,0.1-0.4,0.2c-3.7,1-7.1,1.6-10,1.6
			C92.2,214.5,89.2,213.8,86.8,212.2z"/>
		<path class="st0" d="M121.4,212.1c-2.1-1.6-3.8-3.8-5-6.5c-1.2-2.8-1.8-5.8-1.8-9c0-3.8,0.8-7.1,2.3-9.8s3.5-4.8,5.9-6.1
			c2.4-1.4,4.9-2.1,7.4-2.1c2.8,0,5.3,0.8,7.4,2.5c2.1,1.6,3.8,3.8,4.9,6.5c1.1,2.7,1.7,5.6,1.7,8.6c0,3.4-0.7,6.5-2.1,9.3
			c-1.4,2.8-3.3,5-5.7,6.7c-2.4,1.6-5,2.4-7.7,2.4C126,214.5,123.6,213.7,121.4,212.1z M135,211.4c1.4-1.2,2.5-3,3.3-5.3
			s1.2-5.1,1.2-8.3c0-3.4-0.5-6.5-1.4-9.2s-2.2-4.8-3.9-6.3s-3.6-2.3-5.9-2.3c-2.9,0-5.1,1.3-6.7,3.9c-1.6,2.6-2.4,6.1-2.4,10.7
			c0,3.5,0.5,6.7,1.4,9.5s2.2,5.1,3.9,6.7c1.6,1.6,3.5,2.4,5.6,2.4C132,213.2,133.6,212.6,135,211.4z"/>
		<path class="st0" d="M171.7,188.7c0.5,1.1,1.2,2,2,2.7c0.8,0.8,1.9,1.7,3.3,2.8c1.5,1.2,2.7,2.2,3.6,3.1c0.9,0.9,1.6,1.9,2.2,3.1
			c0.6,1.2,0.9,2.7,0.9,4.4c0,1.9-0.4,3.6-1.2,5c-0.8,1.5-1.9,2.6-3.3,3.5c-1.4,0.8-3.1,1.2-4.9,1.2c-1.2,0-2.5-0.2-3.8-0.6
			c-1.3-0.4-2.3-0.9-3-1.5c-0.3-0.2-0.4-0.6-0.4-1.1l-0.3-8.4v-0.1c0-0.1,0.1-0.2,0.2-0.2c0.1,0,0.2,0,0.3,0.2
			c1,3.1,2.1,5.6,3.4,7.5c1.3,2,2.9,2.9,4.8,2.9c1.3,0,2.3-0.4,3.2-1.3c0.9-0.9,1.3-2.3,1.3-4.4c0-1.6-0.3-3.1-0.9-4.3
			c-0.6-1.2-1.3-2.2-2.1-3.1c-0.8-0.8-2-1.8-3.4-3c-1.4-1.1-2.5-2.1-3.3-2.9c-0.8-0.8-1.5-1.8-2-2.9c-0.6-1.2-0.8-2.5-0.8-4.1
			c0-1.9,0.4-3.6,1.3-4.9c0.9-1.3,2-2.3,3.4-3c1.4-0.6,2.8-1,4.3-1c1,0,2,0.1,3,0.4c1,0.2,1.8,0.5,2.5,0.9c0.4,0.2,0.7,0.6,0.7,1.1
			l0.1,7.5c0,0.1-0.1,0.2-0.2,0.2c-0.2,0-0.3,0-0.3-0.1c-0.6-2.3-1.4-4.3-2.4-6.1s-2.5-2.7-4.5-2.7c-1.3,0-2.4,0.5-3.2,1.4
			c-0.8,1-1.2,2.3-1.2,3.9C170.8,186.4,171.1,187.7,171.7,188.7z"/>
		<path class="st0" d="M213.7,181.5c-0.7-1.1-1.7-1.6-3-1.6c-0.1,0-0.1-0.1-0.1-0.3s0-0.3,0.1-0.3l2,0.1c1.1,0.1,2,0.1,2.7,0.1
			c0.5,0,1.3,0,2.4-0.1l2-0.1c0.1,0,0.1,0.1,0.1,0.3s0,0.3-0.1,0.3c-1.2,0-2,0.5-2.7,1.6c-0.6,1.1-1,2.6-1,4.5v15.5
			c0,2.7-0.5,5-1.4,7s-2.2,3.5-3.8,4.6s-3.5,1.6-5.7,1.6s-4.1-0.5-5.8-1.6s-3-2.6-3.9-4.6s-1.4-4.3-1.4-7v-17.9
			c0-1.1-0.1-1.9-0.3-2.4s-0.5-0.9-1-1.1c-0.5-0.2-1.2-0.3-2.2-0.3c-0.1,0-0.1-0.1-0.1-0.3s0-0.3,0.1-0.3l2.3,0.1
			c1.3,0.1,2.4,0.1,3.2,0.1c0.9,0,2,0,3.3-0.1l2.2-0.1c0.1,0,0.1,0.1,0.1,0.3s0,0.3-0.1,0.3c-1,0-1.7,0.1-2.2,0.3s-0.8,0.6-1,1.1
			s-0.2,1.4-0.2,2.5v15.8c0,4.4,0.7,7.7,2.2,9.9s3.5,3.2,6.1,3.2c2.5,0,4.5-1,5.9-2.9s2.1-4.7,2.1-8.2V186
			C214.8,184,214.4,182.5,213.7,181.5z"/>
		<path class="st0" d="M233.6,212.2c-2.5-1.6-4.4-3.7-5.7-6.5c-1.3-2.7-2-5.7-2-9.1c0-3.6,0.7-6.7,2.2-9.4s3.5-4.9,6.1-6.4
			s5.5-2.2,8.7-2.2c1.5,0,2.9,0.1,4.3,0.4c1.4,0.3,2.6,0.7,3.4,1.3c0.3,0.1,0.4,0.3,0.5,0.4c0,0.1,0.1,0.4,0.1,0.9l0.6,7.3
			c0,0.1-0.1,0.2-0.2,0.2c-0.2,0-0.3,0-0.3-0.2c-0.6-2.3-1.8-4.5-3.4-6.4c-1.7-1.9-3.8-2.9-6.4-2.9c-2,0-3.9,0.6-5.6,1.9
			c-1.7,1.3-3,3.2-4,5.6c-1,2.4-1.4,5.2-1.4,8.4c0,3.4,0.5,6.4,1.6,9.2s2.5,4.9,4.5,6.5c1.9,1.6,4.2,2.4,6.7,2.4
			c1.3,0,2.3-0.2,3-0.6s1.2-1,1.6-2c0.3-1,0.5-2.4,0.5-4.2c0-1.9-0.1-3.3-0.3-4c-0.2-0.8-0.6-1.3-1.2-1.5c-0.6-0.3-1.7-0.4-3.2-0.4
			c-0.2,0-0.3-0.1-0.3-0.4c0-0.1,0-0.2,0.1-0.3c0-0.1,0.1-0.1,0.2-0.1c2.5,0.2,4.4,0.3,5.9,0.3s3-0.1,4.6-0.2c0.1,0,0.1,0,0.2,0.1
			c0,0.1,0.1,0.2,0.1,0.2c0,0.3-0.1,0.4-0.2,0.4c-0.6,0-1,0.1-1.2,0.4c-0.2,0.3-0.4,0.8-0.5,1.7s-0.1,2.3-0.1,4.4
			c0,1.7,0.1,2.8,0.2,3.6c0.1,0.7,0.2,1.1,0.2,1.3s0,0.4-0.1,0.4c-0.1,0.1-0.2,0.1-0.4,0.2c-3.7,1-7.1,1.6-10,1.6
			C239,214.5,236.1,213.8,233.6,212.2z"/>
		<path class="st0" d="M269.3,211.9c0.1,0.5,0.5,0.9,0.9,1.1c0.5,0.2,1.2,0.3,2.2,0.3c0.1,0,0.1,0.1,0.1,0.3s0,0.3-0.1,0.3
			c-0.9,0-1.7,0-2.3-0.1l-3.3-0.1l-3.2,0.1c-0.6,0-1.3,0.1-2.3,0.1c-0.1,0-0.1-0.1-0.1-0.3s0-0.3,0.1-0.3c1,0,1.7-0.1,2.2-0.3
			s0.8-0.5,1-1.1c0.2-0.5,0.3-1.4,0.3-2.5v-25.7c0-1.1-0.1-1.9-0.3-2.4c-0.2-0.5-0.5-0.9-1-1.1c-0.5-0.2-1.2-0.3-2.2-0.3
			c-0.1,0-0.1-0.1-0.1-0.3s0-0.3,0.1-0.3l2.3,0.1c1.3,0.1,2.4,0.1,3.2,0.1c0.9,0,2,0,3.3-0.1l2.2-0.1c0.1,0,0.1,0.1,0.1,0.3
			s0,0.3-0.1,0.3c-1,0-1.7,0.1-2.2,0.3s-0.8,0.6-0.9,1.1c-0.2,0.5-0.2,1.4-0.2,2.5v25.6C269.1,210.5,269.1,211.4,269.3,211.9z"/>
		<path class="st0" d="M299.6,205.1c0.1,0,0.2,0,0.2,0.1c0.1,0.1,0.1,0.1,0.1,0.1c-0.3,2.8-0.4,5.4-0.4,7.7c0,0.3,0,0.5-0.1,0.6
			s-0.3,0.2-0.5,0.2h-19.3c-0.1,0-0.1-0.1-0.1-0.3s0-0.3,0.1-0.3c1,0,1.7-0.1,2.2-0.3s0.8-0.5,0.9-1.1c0.2-0.5,0.2-1.4,0.2-2.5
			v-25.7c0-1.1-0.1-1.9-0.2-2.4c-0.2-0.5-0.5-0.9-1-1.1c-0.5-0.2-1.2-0.3-2.2-0.3c-0.1,0-0.1-0.1-0.1-0.3s0-0.3,0.1-0.3H298
			c0.3,0,0.4,0.2,0.4,0.5l0.1,7.2c0,0.1-0.1,0.1-0.2,0.2c-0.2,0-0.3,0-0.3-0.1c-0.7-4.2-2.8-6.3-6.2-6.3H290c-1.1,0-1.8,0.2-2.3,0.7
			c-0.4,0.5-0.7,1.3-0.7,2.4v11.3h4.3c3.3,0,4.9-1.4,4.9-4.1c0-0.1,0.1-0.2,0.2-0.2c0.2,0,0.2,0.1,0.2,0.2v4.8v2.6
			c0.1,1.2,0.1,2.1,0.1,2.9c0,0.1-0.1,0.1-0.3,0.1c-0.2,0-0.3,0-0.3-0.1c0-3.2-1.7-4.8-5-4.8h-4.2v12.6c0,1.2,0.2,2.1,0.6,2.6
			s1,0.7,2,0.7h2.2c4,0,6.5-2.4,7.5-7.2C299.5,205.1,299.5,205.1,299.6,205.1z"/>
	</g>
	<g>
		<path class="st0" d="M101.7,234c0,2.3-1.5,4.1-4.3,4.1h-3.5v4.4h-1.5v-12.4h5C100.2,230.1,101.7,231.8,101.7,234z M100.2,234.1
			c0-1.4-0.9-2.6-2.9-2.6h-3.5v5.2h3.5C99.3,236.7,100.2,235.5,100.2,234.1z"/>
		<path class="st0" d="M118.4,236.3c0,3.7-2.8,6.4-6.4,6.4s-6.4-2.8-6.4-6.4c0-3.7,2.8-6.4,6.4-6.4
			C115.6,229.9,118.4,232.6,118.4,236.3z M107,236.3c0,2.9,2.1,5,4.9,5s4.9-2.1,4.9-5s-2.1-5-4.9-5C109.2,231.3,107,233.4,107,236.3
			z"/>
		<path class="st0" d="M126.6,237.7h-2.4v4.8h-1.5v-12.4h4.9c2.8,0,4.2,1.6,4.2,3.8c0,2.1-1.2,3.5-3.5,3.7l4,4.9h-1.8L126.6,237.7z
			 M124.2,236.4h3.3c2,0,2.9-1.1,2.9-2.5s-0.9-2.4-2.9-2.4h-3.3C124.2,231.5,124.2,236.4,124.2,236.4z"/>
		<path class="st0" d="M144.8,231.5h-4v11h-1.5v-11h-4v-1.4h9.5V231.5z"/>
		<path class="st0" d="M150.3,231.5v4h6v1.4h-6v5.6h-1.5v-12.4h7.9v1.4H150.3z"/>
		<path class="st0" d="M173.1,236.3c0,3.7-2.8,6.4-6.4,6.4c-3.6,0-6.4-2.8-6.4-6.4c0-3.7,2.8-6.4,6.4-6.4
			C170.3,229.9,173.1,232.6,173.1,236.3z M161.7,236.3c0,2.9,2.1,5,4.9,5c2.8,0,4.9-2.1,4.9-5s-2.1-5-4.9-5
			C163.9,231.3,161.7,233.4,161.7,236.3z"/>
		<path class="st0" d="M184.9,241.1v1.4h-7.5v-12.4h1.5v11H184.9z"/>
		<path class="st0" d="M188.8,230.1h1.5v12.4h-1.5V230.1z"/>
		<path class="st0" d="M207.5,236.3c0,3.7-2.8,6.4-6.4,6.4c-3.6,0-6.4-2.8-6.4-6.4c0-3.7,2.8-6.4,6.4-6.4
			C204.7,229.9,207.5,232.6,207.5,236.3z M196.2,236.3c0,2.9,2.1,5,4.9,5c2.8,0,4.9-2.1,4.9-5s-2.1-5-4.9-5S196.2,233.4,196.2,236.3
			z"/>
	</g>
	<g>
		<g>
			<g>
				<g>
					<path class="st0" d="M123.4,84.7c4.5,0,4.8-3.7,4.8-13.8V48c0-10.1-0.3-13.8-4.8-13.8v-0.5h13.9v0.5c-4.5,0-4.8,3.7-4.8,13.8
						v22.9c0,10.1,0.3,13.8,4.8,13.8v0.5h-13.9L123.4,84.7L123.4,84.7z M153.6,33.7h5.1c0.9,0.9,1.6,2.9,1.6,4.8
						c0,15.9-25.1,17.6-25.1,21c0,2.9,9.3,1.5,14.3,8.9c4.9,7.2,9.7,16.3,15.6,16.3v0.5h-7.9c-2.4,0-3.8-3.2-12-15.4
						c-5.8-8.5-10.5-7.4-10.5-10.3c0-4.6,20.7-6.4,20.7-20.9C155.4,36.7,154.7,34.6,153.6,33.7z"/>
				</g>
				<g>
					<path class="st0" d="M160.7,70c6.4,0,10.8,0.9,14.8,2.1v6.2H175c0,0-3.2-7.8-14.2-7.8c-9.6,0-14.9,5.2-14.9,10.4
						c0,12.7,32.7,8.2,32.7,24.4c0,6.4-7.5,12.8-19.4,12.8c-6.8,0-12.9-3.1-16.7-5.7v-6.2h0.5c0,0,6.8,11,19.1,11
						c7.6,0,13.5-5,13.5-10.1c0-13.9-33.4-10-33.4-25.2C142.1,75.6,148.7,70,160.7,70z"/>
				</g>
			</g>
		</g>
		<path class="st0" d="M150.8,3.9c26.2,0,47.5,21.3,47.5,47.5v46.1c0,26.2-21.3,47.5-47.5,47.5h-1.7c-26.2,0-47.5-21.3-47.5-47.5
			v-46c0-26.2,21.3-47.5,47.5-47.5L150.8,3.9 M150.8,3h-1.7c-26.8,0-48.5,21.7-48.5,48.5v46.1c0,26.8,21.7,48.5,48.5,48.5h1.7
			c26.8,0,48.5-21.7,48.5-48.5V51.5C199.3,24.7,177.6,3,150.8,3L150.8,3z"/>
		<path class="st0" d="M150.8,1c27.8,0,50.5,22.6,50.5,50.5v46.1c0,27.8-22.6,50.5-50.5,50.5h-1.7c-27.8,0-50.5-22.6-50.5-50.5V51.5
			C98.7,23.6,121.3,1,149.2,1H150.8 M150.8,0h-1.7c-28.4,0-51.5,23.1-51.5,51.5v46.1c0,28.4,23.1,51.5,51.5,51.5h1.7
			c28.4,0,51.5-23.1,51.5-51.5V51.5C202.3,23.1,179.2,0,150.8,0L150.8,0z"/>
	</g>
</g>
</svg>
